<?xml version="1.0" standalone="no"?>
<!DOCTYPE svg PUBLIC "-//W3C//DTD SVG 20010904//EN"
 "http://www.w3.org/TR/2001/REC-SVG-20010904/DTD/svg10.dtd">
<svg version="1.0" xmlns="http://www.w3.org/2000/svg"
 width="425.000000pt" height="425.000000pt" viewBox="0 0 425.000000 425.000000"
 preserveAspectRatio="xMidYMid meet">
<metadata>
Created by potrace 1.11, written by Peter Selinger 2001-2013
</metadata>
<g transform="translate(0.000000,425.000000) scale(0.100000,-0.100000)"
fill="#000000" stroke="none">
<path d="M0 3230 c1 -789 4 -1020 13 -1020 8 0 8 -3 1 -8 -5 -4 -11 -30 -12
-58 -2 -44 1 -52 18 -57 16 -4 20 -11 16 -31 -3 -14 -7 -30 -10 -35 -4 -5 -1
-13 5 -17 8 -4 9 -3 5 4 -4 7 -2 12 3 12 6 0 11 7 11 16 0 8 4 13 10 9 6 -4 6
-15 0 -31 l-10 -25 31 21 c16 12 33 19 36 16 4 -3 1 -6 -7 -6 -10 0 -10 -3 0
-15 11 -13 9 -15 -8 -13 -11 2 -21 0 -21 -4 -1 -5 1 -8 4 -8 3 0 14 0 25 0 11
0 20 7 20 15 0 9 9 15 23 15 18 0 19 -2 7 -10 -8 -5 -11 -10 -6 -10 5 0 3 -7
-4 -15 -9 -10 -9 -15 -1 -15 6 0 11 4 11 8 0 5 12 14 26 21 23 10 29 9 44 -9
19 -22 39 -28 21 -6 -8 10 -9 16 -1 21 5 3 10 1 10 -5 0 -6 6 -8 12 -4 7 4 10
3 5 -1 -9 -10 41 -45 65 -45 9 0 24 -8 34 -17 10 -10 19 -17 21 -15 10 7 53 0
51 -9 -2 -6 3 -14 9 -16 8 -3 13 4 13 16 0 23 15 28 23 9 8 -19 28 12 23 35
-3 13 2 17 24 17 16 0 31 6 34 13 4 6 4 2 2 -10 -3 -15 1 -23 9 -23 8 0 11 -7
8 -18 -2 -10 -13 -18 -24 -18 -13 0 -18 5 -14 14 4 10 0 12 -11 8 -8 -3 -18
-6 -20 -6 -11 0 -2 -24 14 -36 16 -13 16 -14 0 -8 -10 3 -18 1 -18 -5 0 -6 10
-12 23 -12 16 -1 18 -2 5 -6 -21 -5 -22 -12 -4 -35 7 -10 17 -14 21 -10 5 4 5
1 1 -6 -5 -9 -1 -15 14 -19 15 -4 18 -8 9 -13 -7 -5 -18 -2 -26 6 -8 8 -19 14
-24 14 -12 0 -12 -17 1 -25 6 -4 7 -11 4 -17 -5 -7 -11 -2 -16 13 -7 19 -11
21 -18 9 -5 -8 -5 -21 0 -31 13 -24 -14 -47 -35 -29 -15 12 -35 6 -35 -11 0
-6 4 -8 10 -4 5 3 18 0 29 -7 15 -9 23 -9 35 2 9 7 19 11 22 8 7 -7 -60 -38
-83 -38 -10 0 -25 -5 -33 -10 -10 -6 3 -8 38 -5 40 3 54 0 59 -11 4 -12 8 -12
21 -2 9 7 13 8 10 3 -4 -6 -3 -17 2 -25 7 -11 14 -9 36 14 27 26 28 26 35 8 9
-25 26 -35 34 -22 3 5 -1 10 -9 10 -9 0 -16 5 -16 10 0 14 13 12 35 -4 14 -10
25 -11 37 -5 13 7 18 6 18 -3 0 -8 15 -14 37 -16 21 -1 44 -10 53 -18 14 -15
13 -15 -10 -8 -26 9 -57 9 -103 2 -30 -5 -49 -18 -25 -18 8 0 25 -9 38 -20 13
-11 18 -20 12 -20 -6 0 -14 5 -17 10 -4 6 -10 8 -15 5 -13 -8 -47 29 -42 46 3
8 -4 3 -15 -11 -11 -14 -22 -31 -24 -38 -3 -9 -10 -7 -27 8 -23 22 -31 14 -9
-9 10 -11 8 -12 -10 -7 -18 6 -20 4 -16 -14 3 -11 10 -20 15 -20 5 0 6 5 3 10
-9 14 4 12 19 -2 20 -21 14 -56 -11 -67 -18 -8 -23 -8 -23 3 0 8 -11 14 -27
14 l-26 0 23 -18 c17 -13 19 -19 9 -22 -8 -3 -23 2 -33 11 -11 9 -16 10 -12 4
10 -17 -9 -16 -23 1 -13 16 -91 17 -91 2 0 -6 -4 -4 -9 4 -6 8 -8 17 -6 21 3
3 -7 4 -20 1 -20 -3 -25 0 -25 17 0 12 -4 19 -10 16 -6 -3 -17 0 -24 8 -11 11
-12 17 -3 27 9 10 9 11 -1 6 -19 -11 -64 38 -64 69 -1 20 -4 24 -19 20 -25 -8
-36 20 -16 40 9 8 20 15 26 15 5 0 13 4 16 10 4 6 -2 7 -17 2 -13 -5 -29 -7
-35 -6 -7 1 -23 2 -35 3 -16 1 -19 4 -10 9 15 10 10 74 -7 80 -17 6 -13 22 7
22 15 1 15 2 -3 16 -19 15 -19 15 8 9 26 -7 27 -6 17 20 -6 17 -7 33 0 44 7
14 5 24 -9 40 -10 11 -23 21 -30 21 -6 0 -11 5 -11 12 0 6 -3 8 -6 5 -4 -4 -1
-13 6 -22 11 -13 8 -13 -19 -4 -17 6 -29 15 -26 19 3 4 -2 11 -10 14 -8 3 -14
11 -13 17 2 6 -3 14 -9 16 -9 3 -13 -7 -13 -34 0 -43 22 -84 34 -65 4 7 2 12
-4 12 -6 0 -8 5 -5 10 3 6 13 10 21 10 22 0 8 -39 -22 -66 l-25 -22 1 -696 c1
-751 -2 -701 48 -699 6 1 12 -3 12 -7 0 -10 -31 -24 -47 -21 -10 1 -13 -22
-13 -89 0 -49 4 -90 9 -90 5 0 7 10 3 22 -4 17 -2 20 11 15 10 -4 17 -1 17 5
0 7 6 4 13 -7 11 -14 22 -17 45 -12 19 4 32 2 32 -3 0 -6 4 -10 10 -10 5 0 9
3 9 8 -3 20 2 25 12 12 8 -11 12 -12 16 -2 2 6 16 12 29 12 13 0 24 5 24 11 0
6 6 9 14 6 8 -3 17 1 20 9 7 19 42 18 50 -2 3 -8 2 -13 -2 -11 -4 2 -14 -3
-22 -12 -13 -14 -13 -18 0 -31 22 -21 49 -21 47 -1 0 9 3 29 7 44 5 22 10 26
20 18 15 -12 35 24 81 147 15 40 37 83 49 95 13 14 22 34 22 52 -1 26 7 34 79
76 57 34 96 49 134 54 29 4 74 13 100 21 51 15 89 18 54 4 -16 -7 -20 -14 -16
-32 6 -23 6 -23 -15 -4 -12 11 -22 16 -22 12 0 -4 15 -20 32 -37 18 -16 26
-29 19 -29 -11 0 -11 -3 -1 -15 13 -15 4 -59 -11 -50 -5 3 -6 -1 -3 -9 3 -9
12 -16 20 -16 8 0 14 -4 14 -10 0 -5 -6 -10 -12 -10 -9 0 -10 -3 -2 -8 12 -8
37 -149 29 -163 -4 -5 -11 -6 -17 -3 -7 5 -9 1 -5 -9 3 -9 1 -18 -6 -21 -9 -3
-8 -5 1 -5 7 -1 10 -5 7 -11 -3 -5 -2 -18 3 -27 13 -25 23 -113 12 -113 -5 0
-12 15 -16 32 -4 18 -9 27 -11 21 -8 -21 -23 -15 -24 10 0 21 -1 21 -8 2 -7
-16 -11 -9 -20 33 -14 66 -14 71 3 49 13 -17 14 -16 19 3 3 11 2 18 -2 16 -3
-2 -14 1 -23 8 -28 20 -48 119 -49 243 0 62 -4 113 -8 113 -19 0 -39 -30 -55
-83 -9 -31 -15 -61 -12 -65 3 -5 -1 -21 -9 -36 -13 -25 -13 -27 5 -21 17 5 19
1 17 -38 -1 -29 2 -44 10 -43 6 1 11 -1 11 -4 -1 -3 4 -15 10 -27 8 -14 9 -24
2 -28 -5 -3 -10 -15 -10 -26 0 -10 -6 -19 -12 -19 -9 0 -8 -4 2 -10 13 -9 13
-11 0 -20 -8 -5 -10 -10 -4 -10 7 0 11 -10 10 -23 -1 -17 -7 -22 -26 -21 -16
1 -25 7 -24 17 1 8 -4 13 -11 11 -7 -3 -15 2 -18 10 -4 9 -2 16 4 16 6 0 7 4
4 10 -3 5 2 24 11 41 9 17 17 49 19 71 3 37 2 38 -23 34 -15 -2 -30 -5 -34 -5
-5 -1 -8 -10 -8 -22 0 -28 -19 -61 -31 -53 -19 11 -47 -31 -45 -67 2 -19 -1
-37 -6 -40 -5 -3 -13 -34 -18 -69 -5 -35 -14 -66 -20 -70 -7 -4 -10 -16 -9
-26 2 -11 -6 -33 -19 -51 -48 -68 -115 -63 842 -63 934 0 876 -3 876 50 0 14
-6 17 -22 13 -19 -4 -20 -3 -8 6 13 9 12 11 -5 11 -18 1 -18 2 3 10 20 8 21
13 12 31 -7 11 -9 23 -6 27 3 3 6 0 6 -7 0 -7 4 -10 9 -7 5 3 12 -6 15 -19 4
-14 11 -23 17 -20 5 4 7 15 4 26 -5 16 -1 19 24 19 22 0 31 5 33 18 0 9 2 24
2 32 1 8 -10 20 -24 27 -19 9 -21 12 -7 13 22 0 17 25 -4 25 -8 0 -15 12 -17
28 -4 30 -22 38 -23 10 0 -11 -3 -13 -6 -5 -7 18 -23 4 -23 -20 0 -24 -10 -19
-14 7 -1 9 -8 20 -15 24 -10 6 -9 10 4 14 13 5 14 11 5 27 -7 13 -7 20 0 20 5
0 10 9 10 21 0 11 5 17 10 14 6 -4 8 -11 5 -16 -4 -5 -1 -9 5 -9 6 0 10 10 9
23 -2 12 0 28 4 34 5 8 -4 20 -25 33 -18 11 -28 20 -22 20 6 0 12 11 12 25 0
18 -6 25 -19 25 -22 0 -23 4 -7 30 10 15 9 25 -2 47 -8 15 -16 32 -19 37 -2 5
6 7 17 4 12 -4 25 -2 28 3 3 5 11 9 17 8 34 -4 39 1 32 34 -10 49 -29 87 -42
87 -7 0 -13 6 -13 13 0 6 -16 27 -35 46 -19 19 -35 43 -35 55 0 16 -3 17 -9 7
-6 -9 -11 -10 -15 -2 -4 6 -4 11 0 11 4 0 -1 6 -11 14 -11 8 -16 19 -12 30 4
9 2 16 -3 16 -4 0 -14 16 -20 35 -6 19 -15 35 -19 35 -11 0 -66 54 -86 83 -9
15 -26 27 -36 27 -10 0 -21 5 -24 10 -3 6 -17 10 -31 10 -13 0 -24 5 -24 10 0
6 -7 10 -15 10 -8 0 -15 4 -15 8 0 5 -22 21 -50 36 -27 15 -50 31 -50 36 0 4
-24 27 -52 50 -29 23 -58 51 -65 63 -7 12 -12 18 -13 14 0 -9 -116 69 -156
106 -16 15 -34 27 -40 27 -17 0 -104 72 -98 81 3 5 -5 9 -18 9 -36 0 -98 46
-157 117 -21 24 -21 59 -2 96 34 67 38 69 82 47 50 -26 62 -26 53 3 -3 12 -11
24 -15 25 -5 2 -7 7 -4 12 3 5 -8 18 -25 30 -18 13 -30 30 -30 44 0 22 -17 46
-32 46 -4 0 -9 -12 -9 -27 l-1 -28 -8 30 c-6 23 -8 25 -9 8 0 -12 -5 -24 -9
-27 -5 -3 -7 -26 -5 -51 4 -42 -8 -62 -21 -32 -3 9 -9 7 -19 -5 -18 -23 -23
-23 -30 3 -4 15 -2 19 8 15 8 -3 17 -1 20 5 4 5 11 6 17 3 8 -5 9 1 5 17 -4
13 -7 27 -7 32 0 4 -4 7 -10 7 -5 0 -10 -11 -10 -25 0 -14 -4 -25 -10 -25 -5
0 -10 9 -10 19 0 30 -14 32 -34 5 -17 -22 -44 -35 -32 -15 9 14 -4 41 -20 41
-7 0 -18 -8 -23 -18 -9 -17 -19 -19 -62 -13 -4 1 1 17 10 36 9 20 21 33 29 30
7 -3 15 2 18 10 3 7 11 12 17 9 7 -2 18 0 25 5 11 6 8 20 -16 67 -16 33 -27
65 -25 72 3 6 0 12 -6 12 -5 0 -8 -9 -6 -19 6 -30 -20 -32 -46 -5 -18 20 -21
27 -10 33 8 6 9 10 2 12 -18 7 -1 44 30 64 16 11 29 26 29 33 0 6 5 12 10 12
6 0 10 4 10 10 0 5 -8 7 -17 3 -12 -4 -8 5 11 25 17 18 36 32 43 32 8 0 12 3
9 8 -2 4 2 18 10 32 9 18 13 20 14 8 0 -24 18 -32 37 -17 13 11 17 10 27 -3 8
-11 17 -14 27 -7 16 10 60 12 83 3 9 -3 16 -16 16 -29 0 -18 6 -22 26 -22 38
0 74 -23 80 -52 12 -54 13 -55 34 -36 11 10 20 24 20 31 0 7 10 20 22 28 17
12 24 13 30 3 5 -8 10 0 14 21 6 29 24 46 24 22 0 -5 5 -10 10 -10 6 0 10 7
10 16 0 8 5 12 10 9 16 -10 12 -19 -17 -38 l-28 -18 32 5 c18 3 35 1 38 -4 3
-6 -2 -10 -11 -10 -14 0 -15 -3 -6 -12 7 -7 8 -17 2 -29 -7 -11 -7 -20 0 -24
5 -3 10 -1 10 6 0 8 7 5 20 -6 15 -13 23 -15 33 -7 10 9 17 8 25 0 9 -9 12 -9
12 2 0 7 3 10 6 7 4 -4 1 -14 -7 -23 -12 -15 -11 -16 10 -9 15 4 21 4 17 -3
-4 -6 2 -8 14 -5 11 3 20 0 20 -6 0 -5 7 -8 15 -5 19 8 19 -6 -1 -34 -14 -20
-14 -22 0 -22 9 0 16 -5 16 -11 0 -7 -9 -9 -21 -6 -16 4 -19 3 -11 -5 17 -17
40 -2 40 27 0 34 9 42 33 27 11 -7 24 -10 29 -7 5 3 11 1 15 -5 4 -6 11 -7 17
-4 7 4 8 2 4 -4 -4 -7 -3 -12 3 -12 5 0 13 5 16 10 7 12 26 14 23 3 -3 -11 20
-73 27 -73 3 0 3 4 0 10 -3 6 -1 10 4 10 6 0 11 -8 11 -17 0 -15 2 -15 9 -4 5
8 8 19 7 25 -2 6 -1 8 1 3 3 -4 9 -5 14 -1 5 3 12 -8 15 -25 6 -30 14 -35 43
-32 8 2 10 -2 5 -10 -5 -8 -2 -11 8 -6 11 4 17 -2 21 -19 4 -21 1 -24 -17 -18
-17 5 -16 3 7 -16 15 -12 25 -26 22 -31 -4 -5 -1 -9 5 -9 7 0 9 -7 6 -16 -5
-12 -1 -14 17 -9 17 5 19 4 7 -4 -13 -9 -11 -14 11 -33 14 -13 29 -33 33 -45
7 -20 4 -22 -28 -19 -38 3 -41 0 -26 -24 10 -16 -4 -40 -24 -40 -6 0 -4 4 4
10 8 5 11 12 8 15 -4 4 -12 -2 -19 -13 l-13 -21 -10 21 c-6 12 -18 24 -26 26
-13 5 -13 3 -2 -11 8 -9 12 -22 10 -29 -3 -7 1 -19 9 -26 7 -7 13 -19 13 -25
0 -7 -7 -4 -14 5 -7 10 -18 18 -25 18 -13 0 -14 10 -1 30 5 9 5 19 -1 27 -6 7
-8 17 -4 22 3 6 0 8 -9 5 -8 -3 -24 4 -35 15 -12 12 -21 17 -21 12 0 -14 34
-71 43 -71 4 0 7 -9 7 -19 0 -20 44 -61 65 -61 7 0 16 7 19 16 8 22 8 26 -4
19 -5 -3 -10 -1 -10 5 0 7 8 9 19 5 24 -7 53 4 44 18 -3 5 2 16 12 24 11 7 15
13 10 13 -4 0 2 9 15 20 26 23 44 26 37 8 -2 -7 -1 -21 2 -31 6 -16 13 -13 54
26 26 24 47 42 47 39 0 -2 7 3 15 12 8 8 15 19 15 24 0 5 10 12 23 16 17 4 30
22 47 60 13 31 26 53 31 51 4 -3 5 4 2 15 -3 11 0 20 6 20 9 0 9 6 0 23 -11
19 -10 20 3 9 14 -11 17 -7 24 25 4 21 6 44 5 50 -1 8 4 10 14 7 9 -4 15 -3
14 2 -4 22 2 35 13 28 7 -5 8 -3 4 5 -5 7 0 19 10 27 16 13 17 15 2 10 -12 -3
-15 -1 -11 10 3 7 9 14 14 14 5 0 9 10 9 22 0 21 0 21 -14 2 -8 -10 -18 -16
-22 -11 -4 4 -2 7 5 7 7 0 9 5 6 10 -8 13 20 41 31 32 5 -4 3 0 -3 8 -7 10 -8
21 -3 30 5 8 6 18 4 22 -3 4 2 5 10 2 9 -3 16 -1 16 5 0 6 -5 11 -10 11 -6 0
-5 6 2 14 7 8 16 12 21 9 4 -2 7 0 7 6 0 5 -8 15 -17 20 -10 6 -13 11 -7 11 6
0 17 -7 24 -15 7 -8 17 -15 23 -15 6 0 0 11 -12 24 -19 20 -20 24 -6 30 9 3
13 2 10 -4 -3 -6 2 -10 12 -10 14 0 15 -2 4 -9 -9 -6 -10 -11 -3 -15 6 -4 9
-13 5 -21 -3 -8 1 -15 8 -15 7 0 9 -3 6 -6 -3 -4 -2 -16 4 -27 7 -12 7 -17 1
-13 -15 9 -23 -23 -12 -45 7 -12 21 -19 38 -19 41 0 54 -30 53 -121 0 -43 4
-81 9 -84 6 -4 8 -10 6 -14 -3 -4 -1 -13 4 -21 7 -11 13 -11 34 3 30 20 40 22
29 5 -14 -22 -10 -56 5 -51 8 4 11 14 9 25 -7 25 29 63 46 50 7 -5 25 -12 40
-16 20 -5 27 -11 23 -21 -3 -8 -1 -15 4 -15 6 0 10 4 10 9 0 6 9 8 20 6 11 -2
18 -1 16 3 -3 4 20 26 50 47 62 45 86 57 67 33 -17 -20 8 -96 41 -127 50 -47
132 -36 167 24 12 19 24 35 29 35 15 0 61 -54 56 -66 -3 -7 6 -15 19 -18 14
-4 25 -16 30 -33 3 -16 13 -35 21 -44 17 -18 58 -14 47 5 -4 6 0 6 9 -2 13
-10 16 -9 21 8 3 11 1 20 -4 20 -5 0 -9 18 -9 40 0 41 -26 109 -47 123 -7 4
-13 13 -13 20 0 7 4 6 10 -3 8 -13 10 -12 10 3 0 9 -6 17 -12 17 -9 0 -8 4 2
10 13 9 13 11 0 20 -12 8 -12 10 5 10 17 0 17 2 5 10 -13 8 -13 10 2 10 12 0
16 5 11 17 -8 24 7 10 21 -19 6 -13 20 -24 31 -25 17 -3 16 -1 -2 7 -26 11
-32 25 -6 16 14 -6 14 -4 -2 14 -19 21 -19 21 7 11 28 -11 72 9 50 23 -6 3
-14 2 -17 -4 -5 -8 -11 -8 -20 0 -8 7 -20 8 -27 4 -7 -4 -10 -4 -6 1 4 4 2 15
-5 23 -10 13 -9 14 11 3 21 -11 33 1 12 14 -5 3 -6 13 -3 22 4 10 2 14 -4 10
-6 -4 -18 2 -28 13 -10 11 -20 18 -24 16 -3 -2 -14 2 -25 9 -13 10 -15 18 -8
31 6 11 11 13 16 5 4 -6 12 -11 18 -11 6 0 1 11 -12 25 -22 23 -48 26 -34 3 4
-7 2 -8 -4 -4 -9 5 -9 13 -2 26 13 24 13 30 -1 30 -5 0 -8 -4 -4 -9 3 -6 -4
-9 -15 -8 -11 1 -20 4 -20 7 0 3 -9 16 -20 30 -12 15 -18 18 -14 8 8 -24 -18
-33 -48 -17 -24 14 -30 16 -53 18 -9 1 -12 7 -8 17 5 15 7 15 15 -1 9 -15 12
-13 24 11 15 28 12 54 -5 54 -6 0 -20 -19 -32 -42 -19 -37 -23 -40 -33 -25
-12 15 -14 15 -29 0 -16 -17 -53 -11 -42 7 5 8 11 8 20 0 9 -8 14 -7 18 4 4 9
1 18 -5 22 -7 5 -8 2 -3 -6 5 -9 2 -10 -13 -6 -13 4 -22 1 -26 -9 -3 -9 -10
-13 -16 -10 -6 3 -7 -1 -4 -9 3 -9 11 -16 17 -16 6 0 7 -3 4 -6 -4 -4 -18 1
-31 10 -22 14 -25 14 -20 1 4 -9 0 -15 -10 -15 -10 0 -13 6 -9 18 3 9 3 14 -2
10 -10 -9 -37 11 -30 22 3 5 -4 11 -15 15 -11 4 -18 11 -15 16 4 5 1 9 -4 9
-6 0 -11 8 -11 18 -1 16 -1 16 -11 0 -15 -26 -30 -22 -20 5 6 16 4 26 -7 37
-14 13 -15 12 -9 -3 4 -11 0 -20 -13 -27 -30 -16 -33 -12 -16 18 17 26 17 26
-1 7 -29 -33 -50 -36 -88 -14 -23 14 -35 17 -35 9 0 -10 -3 -10 -15 0 -15 13
-11 35 6 25 5 -4 9 -1 9 4 0 20 -49 11 -64 -11 -8 -12 -13 -25 -11 -28 3 -4
-4 -10 -15 -13 -17 -4 -18 -3 -8 16 10 19 9 20 -4 9 -11 -9 -18 -10 -23 -2 -3
5 -1 10 6 10 9 0 9 3 0 14 -10 11 -8 15 6 19 16 4 16 5 1 6 -9 0 -19 10 -23
20 -3 11 -16 21 -28 23 -12 2 -23 10 -23 18 -3 32 -5 34 -15 17 -6 -9 -15 -15
-20 -11 -6 4 -3 14 7 25 13 14 14 23 7 30 -8 8 -11 6 -10 -7 1 -12 -3 -18 -13
-16 -8 2 -12 0 -8 -4 4 -4 -8 -15 -27 -25 -32 -18 -36 -18 -65 -1 -16 9 -30
21 -30 25 0 5 -5 5 -11 1 -8 -4 -7 -9 2 -15 10 -6 7 -8 -9 -6 -12 0 -22 5 -22
9 0 4 -7 8 -15 8 -8 0 -15 4 -15 8 0 5 7 9 15 9 8 0 15 -5 15 -10 0 -6 3 -8 6
-4 3 3 -1 16 -10 29 -18 25 -21 42 -6 33 6 -3 7 1 4 9 -3 9 -10 13 -15 10 -13
-8 -11 10 3 24 9 9 9 12 -3 12 -18 0 -18 25 -1 57 15 28 15 36 0 27 -10 -5
-10 -4 -1 6 10 11 16 11 31 -3 10 -9 25 -17 33 -17 12 0 12 2 -1 10 -10 6 -1
8 28 5 27 -2 40 0 36 6 -3 6 0 10 7 8 8 -1 21 -1 29 0 12 1 11 4 -3 12 -14 8
-22 8 -30 0 -16 -16 -23 -14 -23 8 0 15 6 18 31 15 28 -4 29 -4 11 11 -26 20
-1 20 38 0 16 -9 38 -13 50 -9 18 6 19 5 8 -9 -8 -10 -9 -17 -3 -21 6 -4 15 3
21 14 6 11 16 20 23 20 8 0 8 -3 -2 -9 -9 -6 -10 -11 -3 -15 6 -4 16 2 21 13
16 29 14 31 -21 24 -23 -5 -29 -3 -24 6 5 7 14 10 22 7 8 -3 14 -1 14 3 0 5
-6 12 -13 14 -8 4 -7 6 4 6 8 1 20 -4 27 -11 9 -9 12 -9 12 2 0 7 7 22 17 32
9 11 11 18 5 18 -7 0 -12 -5 -12 -10 0 -6 -11 -3 -24 5 -24 16 -24 15 -19 -6
4 -16 2 -20 -8 -17 -8 3 -34 -5 -59 -18 -33 -18 -46 -21 -49 -12 -2 7 -8 21
-13 32 -7 13 -7 16 1 12 21 -13 11 26 -11 45 l-23 20 25 -12 c34 -17 60 -18
60 -2 0 7 -8 13 -17 14 -12 1 -10 3 6 8 14 4 32 20 41 36 14 25 15 33 4 50
-12 18 -11 21 6 22 12 1 18 -5 18 -15 0 -9 3 -25 7 -35 5 -12 3 -16 -6 -12 -9
3 -21 -10 -32 -35 -18 -38 -16 -67 4 -55 5 4 9 2 9 -4 0 -6 -15 -8 -35 -6 -41
6 -46 -5 -10 -22 20 -9 31 -9 51 2 17 9 21 15 12 18 -11 4 -11 6 0 6 7 1 10 6
6 13 -5 7 -3 8 6 3 22 -14 60 -12 60 2 0 7 5 13 11 13 5 0 7 -4 4 -10 -3 -6 1
-7 10 -4 14 6 14 8 -2 19 -15 11 -16 15 -3 31 14 17 14 18 -2 5 -10 -7 -25
-11 -33 -7 -8 3 -15 1 -15 -4 0 -5 -9 -7 -20 -5 -11 2 -19 -1 -17 -8 1 -7 -4
-11 -11 -9 -8 1 -11 -2 -7 -8 3 -5 -1 -10 -9 -10 -9 0 -16 4 -16 8 0 15 48 54
59 48 5 -4 12 -2 15 3 3 5 14 7 25 4 13 -3 20 2 24 17 4 18 3 19 -9 9 -12 -10
-19 -7 -39 11 -13 13 -22 26 -20 31 3 4 0 9 -7 11 -9 3 -9 6 0 12 7 4 12 3 12
-3 0 -5 11 -8 25 -5 14 2 25 0 25 -6 0 -6 -4 -8 -10 -5 -5 3 -10 4 -10 1 0 -3
10 -10 21 -17 16 -8 20 -8 14 0 -4 7 -2 18 5 26 12 15 35 10 61 -12 9 -7 19
-10 24 -6 4 5 5 2 1 -5 -5 -9 -3 -13 5 -11 23 3 79 -13 74 -21 -3 -5 3 -11 13
-14 10 -4 19 -13 19 -21 0 -11 -7 -10 -28 6 -16 11 -31 24 -34 29 -4 6 -11 10
-17 10 -7 0 -7 -4 1 -13 6 -8 8 -17 4 -20 -3 -4 0 -7 7 -7 7 0 11 -3 7 -6 -3
-4 1 -13 9 -21 13 -14 13 -17 -2 -34 -15 -17 -15 -18 4 -16 13 1 18 6 14 16
-4 11 -1 13 12 8 10 -4 25 -7 35 -7 10 0 17 -8 18 -20 2 -24 -5 -25 -27 -5
-14 13 -19 13 -23 3 -2 -7 7 -22 21 -32 14 -11 22 -15 19 -9 -4 6 0 14 9 17 9
4 14 13 10 21 -8 21 7 19 21 -4 10 -16 8 -22 -8 -37 -21 -19 -25 -34 -9 -34 6
0 9 6 8 13 -4 17 42 10 65 -11 16 -13 19 -14 15 -2 -2 8 -17 21 -31 28 -34 17
-26 36 8 20 14 -6 25 -15 25 -19 0 -19 26 -15 28 4 1 17 -1 19 -8 7 -9 -15
-11 -13 -14 13 -1 6 -11 12 -24 11 -12 0 -22 3 -22 6 0 13 27 30 35 22 15 -13
-7 22 -28 46 -12 12 -22 29 -23 36 -3 23 33 55 56 49 12 -3 20 0 20 7 0 7 7
10 15 6 8 -3 15 -1 15 5 0 6 5 7 10 4 6 -3 10 -11 10 -16 0 -6 -5 -7 -10 -4
-5 3 -10 2 -10 -4 0 -22 21 -21 29 2 6 14 15 28 22 33 7 4 10 3 5 -4 -3 -6 -2
-13 4 -17 5 -3 10 -13 10 -22 0 -9 7 -21 17 -28 19 -14 9 -37 -12 -29 -8 4
-13 9 -10 13 2 4 -6 7 -17 6 -27 -2 -33 -18 -13 -35 9 -7 15 -8 15 -2 0 6 -6
13 -12 15 -8 3 -5 6 6 6 15 1 17 -4 12 -24 -8 -32 -2 -31 30 0 18 18 23 31 18
43 -4 9 -8 25 -9 34 -1 10 -8 25 -15 33 -17 21 -6 30 13 11 13 -13 17 -13 36
5 21 20 21 20 21 -2 0 -14 -5 -19 -14 -16 -8 3 -17 -1 -20 -10 -5 -12 -1 -14
19 -9 14 4 24 3 23 -1 -5 -16 24 -54 37 -49 17 6 40 -19 25 -29 -5 -3 -10 -14
-9 -23 0 -11 2 -12 6 -4 2 6 9 10 14 7 5 -4 6 2 2 11 -5 14 -2 16 20 12 15 -3
24 -1 21 3 -3 5 -14 9 -26 9 -17 0 -19 4 -13 27 9 36 14 41 25 23 8 -13 10
-12 10 2 0 9 -5 18 -12 20 -11 4 -18 26 -20 65 0 14 -5 20 -12 16 -6 -3 -4 2
5 13 17 20 15 54 -4 54 -6 0 -2 6 8 14 11 8 23 12 27 10 5 -3 8 0 8 6 0 7 7 4
16 -5 9 -9 18 -14 21 -11 6 6 -34 45 -41 40 -3 -2 -3 -1 0 3 7 10 37 10 45 1
3 -5 24 -9 47 -10 23 -1 40 -3 37 -6 -2 -3 3 -11 13 -19 14 -11 14 -12 1 -7
-10 3 -19 -1 -22 -10 -5 -11 0 -16 13 -16 10 0 22 -5 25 -10 4 -6 10 -8 15 -5
12 8 41 -6 34 -16 -3 -5 2 -9 10 -9 9 0 16 -7 16 -15 0 -8 -5 -15 -11 -15 -5
0 -8 4 -5 9 3 5 -16 8 -44 8 -49 -1 -48 -17 2 -17 36 0 59 -10 51 -23 -4 -6
-1 -7 8 -1 8 5 27 9 43 10 20 1 24 -1 15 -7 -8 -5 -23 -6 -34 -3 -19 6 -18 5
3 -15 12 -12 22 -26 22 -31 0 -5 14 -23 30 -40 29 -30 42 -69 18 -54 -7 4 -8
3 -4 -5 4 -6 11 -9 16 -6 5 3 11 -4 15 -14 4 -12 12 -18 21 -14 12 4 12 8 2
21 -11 13 -10 14 7 5 11 -6 31 -16 45 -21 23 -10 22 -10 -7 -5 -38 6 -44 -9
-10 -25 17 -8 18 -11 5 -11 -10 -1 -15 -6 -12 -15 3 -8 16 -12 35 -10 26 3 28
2 17 -16 -10 -16 -10 -22 1 -32 12 -11 13 -10 8 5 -4 11 -3 16 4 11 6 -3 8
-17 5 -29 -3 -13 -1 -27 5 -30 6 -4 8 -14 5 -22 -3 -8 -1 -11 4 -8 14 9 12 -9
-2 -23 -10 -9 -8 -16 6 -30 18 -16 18 -16 7 8 -11 23 -11 23 3 7 15 -20 11
-51 -6 -41 -10 7 -5 -18 15 -66 6 -14 10 -28 9 -32 -1 -5 3 -8 8 -8 13 0 13
-57 0 -65 -6 -4 -4 -12 5 -22 9 -8 13 -18 10 -21 -3 -4 -10 0 -15 8 -13 20
-13 -2 0 -34 8 -21 7 -26 -6 -26 -9 0 -14 -6 -11 -12 2 -7 -2 -21 -11 -30 -11
-14 -12 -21 -3 -32 9 -11 8 -15 -4 -20 -11 -4 -14 -2 -9 7 5 9 4 9 -5 1 -7 -6
-13 -41 -14 -76 -2 -53 -5 -64 -17 -60 -9 3 -6 -4 8 -20 12 -13 22 -28 22 -34
0 -5 -6 -2 -13 6 -7 8 -21 22 -32 30 -18 14 -19 14 -7 -2 7 -9 12 -22 11 -30
-5 -43 7 -54 39 -35 6 5 12 4 12 -2 0 -5 -5 -13 -11 -16 -6 -4 -7 -19 -4 -36
7 -33 -2 -72 -16 -64 -5 4 -9 0 -10 -7 0 -7 -2 -21 -4 -30 -2 -10 1 -18 7 -18
6 0 7 7 4 16 -3 8 -2 12 4 9 6 -3 10 -15 10 -26 0 -11 -4 -18 -9 -14 -6 3 -10
-3 -10 -12 0 -22 -10 -176 -12 -183 -6 -23 -3 -68 6 -79 7 -11 7 -13 -2 -7
-17 9 -17 -6 0 -23 10 -10 8 -11 -8 -5 -16 5 -17 4 -8 -6 7 -8 8 -22 3 -41 -5
-16 -5 -29 -1 -29 5 0 7 -11 6 -24 -2 -13 1 -29 6 -37 7 -10 9 -6 8 16 0 17
-1 35 0 42 1 13 26 12 38 -2 4 -4 3 -5 -4 -1 -6 3 -14 2 -18 -4 -8 -13 5 -13
38 2 18 8 26 19 24 29 -3 10 2 16 12 15 11 -1 21 14 31 44 8 25 20 47 25 50 6
3 10 15 10 28 -1 12 5 22 12 22 7 0 17 18 23 40 6 21 15 42 19 45 5 3 12 23
16 46 4 22 13 52 20 66 12 23 14 24 24 6 10 -17 10 -17 11 2 5 103 13 139 39
161 20 17 27 19 29 8 2 -8 7 -12 12 -9 5 3 5 19 0 35 -5 19 -5 28 1 25 5 -4
19 -3 32 1 l22 8 -25 7 c-24 7 -24 7 8 14 26 6 30 10 21 21 -9 11 -8 14 4 14
8 0 17 5 19 11 2 6 16 12 30 12 17 1 23 6 17 11 -15 16 -10 24 11 19 12 -3 20
0 20 6 0 7 5 9 10 6 7 -4 10 293 10 884 l0 891 -1725 0 c-1527 0 -1725 -2
-1725 -15 0 -8 -4 -15 -10 -15 -5 0 -10 7 -10 15 0 13 -50 15 -390 15 l-390 0
0 -1020z m820 776 c0 -3 -4 -8 -10 -11 -5 -3 -10 -1 -10 4 0 6 5 11 10 11 6 0
10 -2 10 -4z m-40 -27 c-7 -11 -14 -18 -17 -15 -8 8 5 36 17 36 7 0 7 -6 0
-21z m58 -84 c1 -13 3 -30 4 -36 2 -7 -5 -14 -14 -16 -13 -3 -15 1 -11 17 3
13 0 25 -7 30 -14 9 -5 30 13 30 7 0 14 -11 15 -25z m2912 -28 c0 -2 -13 -16
-30 -32 -16 -16 -30 -25 -30 -21 0 4 12 18 26 31 25 24 34 29 34 22z m-2930
-51 c0 -3 -4 -8 -10 -11 -5 -3 -10 -1 -10 4 0 6 5 11 10 11 6 0 10 -2 10 -4z
m2570 -66 c-8 -5 -19 -10 -25 -10 -5 0 -3 5 5 10 8 5 20 10 25 10 6 0 3 -5 -5
-10z m-2696 -65 c-4 -8 -16 -15 -28 -15 -20 1 -20 1 4 15 31 18 30 18 24 0z
m-30 -66 c-3 -6 2 -19 12 -30 24 -26 12 -34 -26 -16 -16 9 -27 11 -24 5 4 -6
0 -14 -7 -19 -10 -6 -11 -9 -1 -9 19 0 14 -20 -5 -20 -15 0 -16 -2 -3 -10 9
-5 19 -5 26 1 8 7 14 7 18 0 12 -18 -19 -25 -114 -27 -92 -2 -118 -4 -208 -19
-37 -7 -42 -6 -36 9 5 12 2 15 -10 10 -9 -3 -16 -1 -16 5 0 6 3 10 8 9 7 -3
12 5 12 23 0 5 -5 7 -10 4 -5 -3 -10 -1 -10 4 0 11 11 14 27 9 5 -2 7 -6 6
-10 -2 -4 10 -3 25 3 40 16 62 19 62 9 0 -4 9 -6 20 -3 11 3 20 9 20 14 0 5
12 14 26 19 14 6 22 14 19 20 -3 5 2 11 12 11 10 1 25 3 33 3 24 2 90 29 90
37 0 4 14 1 30 -8 17 -8 27 -19 24 -24z m2916 -13 c0 -2 -7 -7 -16 -10 -8 -3
-12 -2 -9 4 6 10 25 14 25 6z m-336 -28 c-3 -4 -11 -5 -19 -1 -21 7 -19 12 4
10 11 0 18 -5 15 -9z m-103 -19 c19 -10 18 -29 -2 -29 -6 0 -8 4 -4 9 3 6 -3
14 -12 20 -24 14 -7 14 18 0z m-19 -41 c11 -16 17 -34 15 -41 -3 -7 -6 -5 -6
6 -1 9 -8 17 -16 17 -8 0 -15 6 -15 13 0 8 -10 19 -22 25 l-23 10 23 -1 c14
-1 32 -14 44 -29z m448 -2 c0 -2 -8 -10 -17 -17 -16 -13 -17 -12 -4 4 13 16
21 21 21 13z m105 -16 c-3 -5 -10 -10 -16 -10 -5 0 -9 5 -9 10 0 6 7 10 16 10
8 0 12 -4 9 -10z m-461 -20 c-10 -4 -21 -6 -24 -3 -8 7 24 22 34 16 5 -4 1
-10 -10 -13z m-114 -10 c0 -5 -8 -10 -17 -10 -15 0 -16 2 -3 10 19 12 20 12
20 0z m31 -30 c5 0 9 -8 9 -17 -1 -16 -2 -16 -15 1 -8 11 -14 27 -14 35 1 13
2 12 6 -1 2 -10 9 -18 14 -18z m-587 6 c7 3 19 -3 27 -12 13 -15 12 -16 -11
-9 -14 5 -33 9 -42 9 -10 0 -18 3 -18 7 0 11 24 17 28 8 2 -4 9 -6 16 -3z
m654 -6 c-15 -23 -28 -26 -28 -7 0 17 10 27 27 27 11 0 11 -4 1 -20z m-108
-10 c-6 -11 -13 -20 -16 -20 -2 0 0 9 6 20 6 11 13 20 16 20 2 0 0 -9 -6 -20z
m660 6 c0 -2 -8 -10 -17 -17 -16 -13 -17 -12 -4 4 13 16 21 21 21 13z m-1026
-18 c-4 -6 1 -17 11 -25 11 -8 14 -13 6 -13 -7 0 -25 -9 -41 -20 -15 -11 -31
-16 -35 -12 -5 4 -5 2 -2 -4 7 -12 -13 -24 -39 -24 -21 0 -17 21 6 27 11 3 18
9 15 13 -8 12 6 41 16 34 5 -3 9 1 9 8 0 7 9 2 19 -11 12 -16 21 -20 25 -12 4
6 3 11 -2 11 -6 0 -8 9 -5 20 3 11 10 20 15 20 5 0 6 -5 2 -12z m-318 -5 c-2
-2 -19 -6 -37 -8 -21 -3 -29 -1 -20 4 13 9 66 12 57 4z m159 -13 c10 8 15 9
15 1 0 -6 -4 -11 -10 -11 -5 0 -10 -5 -10 -10 0 -6 11 -8 25 -4 14 3 25 2 25
-4 0 -5 -10 -12 -22 -15 -22 -6 -37 7 -59 48 -10 19 -10 19 5 1 13 -16 18 -17
31 -6z m1085 16 c0 -2 -8 -10 -17 -17 -16 -13 -17 -12 -4 4 13 16 21 21 21 13z
m-1160 -16 c0 -5 -5 -10 -11 -10 -5 0 -7 5 -4 10 3 6 8 10 11 10 2 0 4 -4 4
-10z m294 -16 c3 -9 1 -23 -5 -32 -9 -15 -10 -15 -5 2 4 10 1 25 -5 32 -7 9
-8 14 -1 14 5 0 13 -7 16 -16z m43 -19 c0 -8 -4 -12 -9 -9 -4 3 -8 9 -8 15 0
5 4 9 8 9 5 0 9 -7 9 -15z m842 11 c-2 -2 -15 -9 -29 -15 -24 -11 -24 -11 -6
3 16 13 49 24 35 12z m-1174 -16 c3 -6 -1 -7 -9 -4 -18 7 -21 14 -7 14 6 0 13
-4 16 -10z m523 -26 c0 -18 -3 -22 -9 -13 -7 11 -9 11 -9 1 0 -7 -4 -10 -10
-7 -5 3 -10 2 -10 -4 0 -6 -7 -8 -15 -5 -8 4 -14 16 -14 28 1 17 2 18 6 3 5
-19 30 -17 26 2 -2 6 3 10 10 9 6 -2 11 3 9 10 -1 8 2 11 7 8 4 -3 9 -17 9
-32z m-283 16 c-3 -5 -11 -10 -16 -10 -6 0 -7 5 -4 10 3 6 11 10 16 10 6 0 7
-4 4 -10z m140 0 c-9 -14 14 -42 28 -33 6 3 7 1 3 -5 -5 -9 -14 -7 -32 4 -27
18 -30 30 -11 37 18 8 19 8 12 -3z m-282 -13 c3 -8 -5 -14 -21 -15 -25 -2 -25
-2 -6 13 23 18 21 17 27 2z m237 -30 c0 -5 7 -7 15 -3 8 3 14 0 12 -7 -1 -7 7
-11 21 -10 15 2 21 -1 16 -8 -3 -6 -15 -9 -25 -6 -12 3 -19 0 -19 -9 0 -8 4
-14 10 -14 5 0 8 -13 6 -29 -2 -19 1 -28 9 -25 6 3 19 -4 30 -15 15 -17 16
-23 5 -36 -10 -12 -16 -13 -26 -4 -8 6 -14 8 -14 4 0 -4 -7 -2 -15 5 -9 7 -25
14 -38 15 -12 1 -27 3 -33 4 -6 0 -16 13 -23 29 l-13 27 24 -22 c12 -12 34
-23 48 -25 14 -2 31 -7 39 -12 10 -6 12 -5 7 3 -5 7 -18 16 -31 21 -22 8 -28
31 -12 46 11 11 -13 33 -29 27 -8 -3 -14 0 -14 7 0 6 5 8 10 5 6 -3 10 0 10 7
0 8 5 6 11 -4 13 -22 25 -23 33 -2 5 12 2 15 -9 10 -9 -3 -14 -2 -11 3 3 4 -1
17 -9 27 -8 10 -14 24 -14 29 0 6 6 1 14 -9 8 -11 15 -24 15 -29z m989 25 c7
-13 6 -19 -2 -19 -7 0 -13 9 -13 19 0 10 1 18 3 18 1 0 7 -8 12 -18z m-1389
-2 c0 -5 -2 -10 -4 -10 -3 0 -8 5 -11 10 -3 6 -1 10 4 10 6 0 11 -4 11 -10z
m90 -12 c-22 -21 -38 -24 -21 -5 6 8 9 16 6 18 -2 3 5 5 15 5 19 0 19 -1 0
-18z m-50 -8 c-24 -21 -40 -26 -40 -12 0 7 37 28 54 31 5 0 -1 -8 -14 -19z
m263 7 c-4 -7 1 -8 12 -3 16 6 16 4 4 -10 -7 -9 -15 -12 -16 -7 -2 5 -19 7
-38 5 -21 -3 -35 0 -35 7 0 6 7 8 17 4 9 -4 14 -2 11 3 -3 5 7 9 23 10 17 1
26 -3 22 -9z m442 2 c-4 -6 2 -13 13 -16 13 -3 22 -15 24 -34 5 -35 -9 -39
-18 -4 -3 14 -11 22 -16 19 -15 -10 -29 18 -16 33 13 16 22 17 13 2z m45 1 c0
-5 -5 -10 -11 -10 -5 0 -7 5 -4 10 3 6 8 10 11 10 2 0 4 -4 4 -10z m-806 -30
c-6 -6 -10 -2 -11 12 -2 16 1 18 10 9 7 -7 8 -14 1 -21z m534 -1 c3 -12 2 -12
-6 0 -6 8 -15 10 -22 6 -9 -5 -11 -4 -6 4 10 15 28 10 34 -10z m835 -5 c-3 -8
3 -24 13 -36 19 -21 18 -21 -13 1 -18 12 -39 19 -45 16 -7 -4 -5 0 4 8 10 8
16 16 13 18 -2 3 4 5 15 6 13 1 17 -3 13 -13z m-1317 -12 c-3 -5 -18 -9 -33
-9 l-28 0 30 13 c31 13 41 12 31 -4z m295 -5 c-10 -9 -11 -8 -5 6 3 10 9 15
12 12 3 -3 0 -11 -7 -18z m-284 -42 c-10 -21 -27 -34 -27 -20 0 14 24 54 31
50 4 -3 2 -16 -4 -30z m1299 8 c-7 -7 -26 7 -26 19 0 6 6 6 15 -2 9 -7 13 -15
11 -17z m-1326 7 c0 -5 -7 -10 -16 -10 -8 0 -12 5 -9 10 3 6 10 10 16 10 5 0
9 -4 9 -10z m-2313 -30 c-1 -13 -8 -20 -22 -19 -11 0 -15 3 -8 5 7 3 9 12 6
20 -3 8 1 14 10 14 10 0 15 -8 14 -20z m3608 -5 c40 -24 39 -30 -2 -19 -13 4
-20 10 -17 15 3 5 -2 9 -10 9 -8 0 -18 5 -21 10 -10 17 8 11 50 -15z m-3655 5
c0 -5 -7 -7 -15 -4 -8 4 -15 8 -15 10 0 2 7 4 15 4 8 0 15 -4 15 -10z m85 0
c-3 -5 -10 -10 -16 -10 -5 0 -9 5 -9 10 0 6 7 10 16 10 8 0 12 -4 9 -10z
m2245 -15 c-7 -9 -15 -13 -17 -11 -6 6 20 36 26 30 2 -2 -2 -10 -9 -19z m150
-35 c-14 -10 -26 -17 -28 -15 -7 7 23 34 38 34 10 1 6 -6 -10 -19z m-2423 4
c-3 -3 -12 -4 -19 -1 -8 3 -5 6 6 6 11 1 17 -2 13 -5z m3618 -13 c3 -5 2 -12
-3 -15 -5 -3 -9 1 -9 9 0 17 3 19 12 6z m-3545 -9 c0 -4 -16 -6 -35 -4 -19 2
-35 6 -35 8 0 2 16 4 35 4 19 0 35 -4 35 -8z m2350 -46 c0 -3 -4 -8 -10 -11
-5 -3 -10 -1 -10 4 0 6 5 11 10 11 6 0 10 -2 10 -4z m-73 -41 c-9 -8 -24 -15
-34 -15 -13 0 -10 5 12 19 34 21 45 19 22 -4z m-158 -44 c0 -13 -2 -12 -8 2
-4 10 -10 18 -14 18 -22 -3 -26 0 -20 14 5 14 8 14 24 -1 11 -9 19 -24 18 -33z
m-25 -9 c3 -5 -1 -9 -9 -9 -8 0 -15 4 -15 9 0 4 4 8 9 8 6 0 12 -4 15 -8z
m-91 -44 c-17 -22 -23 -47 -10 -42 19 7 17 -44 -2 -52 -30 -13 -44 -13 -59 3
-15 14 -14 15 6 9 17 -6 21 -4 16 8 -3 9 -10 13 -15 10 -5 -3 -9 2 -9 11 0 11
5 15 15 11 8 -3 15 -4 15 -2 0 3 3 12 7 22 4 12 3 15 -5 10 -7 -4 -12 -2 -12
4 0 7 7 10 15 7 8 -4 17 -2 20 3 4 6 11 10 17 10 7 0 7 -4 1 -12z m-22 -127
c5 9 7 5 5 -14 -1 -15 -6 -30 -11 -35 -4 -4 -5 -2 -1 5 3 6 -1 16 -9 21 -11 5
-13 14 -8 28 7 18 8 18 11 0 3 -15 6 -16 13 -5z m126 -88 c-4 -3 0 -11 9 -17
13 -10 12 -12 -6 -13 -11 -1 -18 2 -15 8 4 5 1 9 -5 9 -6 0 -8 5 -5 10 3 6 11
10 17 10 6 0 8 -3 5 -7z m106 -6 c3 -8 -1 -14 -8 -14 -7 0 -11 6 -8 14 3 7 6
13 8 13 2 0 5 -6 8 -13z m31 -22 c-8 -20 4 -65 17 -65 6 0 6 6 -1 19 -15 29
-12 38 13 35 12 -1 27 -3 32 -3 6 -1 3 -6 -5 -11 -13 -8 -13 -10 2 -10 13 0
16 -7 12 -36 -3 -22 -1 -33 6 -29 5 3 10 0 10 -9 0 -8 -5 -16 -11 -18 -5 -2
-11 -19 -13 -38 -1 -18 -8 -35 -14 -36 -7 -1 -8 0 -3 2 14 8 1 34 -16 34 -12
0 -14 8 -9 35 5 26 3 40 -8 51 -26 25 -34 94 -12 94 3 0 3 -7 0 -15z m166 -75
c0 -5 -5 -10 -11 -10 -5 0 -7 5 -4 10 3 6 8 10 11 10 2 0 4 -4 4 -10z m-1620
-50 c0 -5 -5 -10 -11 -10 -5 0 -7 5 -4 10 3 6 8 10 11 10 2 0 4 -4 4 -10z
m179 -17 c2 -2 -5 -3 -16 -3 -11 0 -20 7 -20 15 0 12 3 12 16 3 9 -7 18 -14
20 -15z m1396 11 c-38 -29 -61 -36 -31 -10 16 14 34 26 40 26 6 0 2 -8 -9 -16z
m235 12 c0 -2 -8 -10 -17 -17 -16 -13 -17 -12 -4 4 13 16 21 21 21 13z m-195
-16 c3 -5 1 -10 -4 -10 -6 0 -11 5 -11 10 0 6 2 10 4 10 3 0 8 -4 11 -10z
m539 -24 c-6 -16 -24 -23 -24 -8 0 10 22 33 27 28 2 -2 1 -11 -3 -20z m616 9
c0 -8 -4 -15 -10 -15 -5 0 -7 7 -4 15 4 8 8 15 10 15 2 0 4 -7 4 -15z m-2600
-9 c0 -3 -4 -8 -10 -11 -5 -3 -10 -1 -10 4 0 6 5 11 10 11 6 0 10 -2 10 -4z
m1384 -20 c-10 -8 -21 -12 -24 -10 -5 6 21 24 34 24 6 0 1 -6 -10 -14z m-67
-2 c-3 -3 -12 -4 -19 -1 -8 3 -5 6 6 6 11 1 17 -2 13 -5z m128 -4 c3 -5 2 -10
-4 -10 -5 0 -13 5 -16 10 -3 6 -2 10 4 10 5 0 13 -4 16 -10z m-85 -30 c0 -5
-5 -10 -11 -10 -5 0 -7 5 -4 10 3 6 8 10 11 10 2 0 4 -4 4 -10z m1216 -45 c1
-45 -1 -53 -12 -44 -15 12 -15 61 0 52 5 -4 7 1 3 11 -6 15 -2 36 6 36 1 0 2
-25 3 -55z m-581 17 c-3 -3 -11 0 -18 7 -9 10 -8 11 6 5 10 -3 15 -9 12 -12z
m71 -4 c-16 -9 -16 -11 1 -31 l18 -22 -22 19 c-18 15 -20 22 -12 38 5 10 15
16 21 12 7 -4 4 -10 -6 -16z m-1556 -8 c8 -5 11 -12 7 -16 -4 -4 -15 0 -24 9
-18 18 -8 23 17 7z m200 -16 c0 -8 -5 -12 -10 -9 -6 4 -8 11 -5 16 9 14 15 11
15 -7z m-160 -14 c0 -5 -2 -10 -4 -10 -3 0 -8 5 -11 10 -3 6 -1 10 4 10 6 0
11 -4 11 -10z m1565 -31 c11 -16 1 -19 -13 -3 -7 8 -8 14 -3 14 5 0 13 -5 16
-11z m-1651 -64 c-4 -8 -11 -12 -16 -9 -6 4 -5 10 3 15 19 12 19 11 13 -6z
m36 1 c0 -2 -8 -10 -17 -17 -16 -13 -17 -12 -4 4 13 16 21 21 21 13z m170 -6
c0 -5 -7 -7 -15 -4 -8 4 -15 8 -15 10 0 2 7 4 15 4 8 0 15 -4 15 -10z m106
-39 c-5 -8 -13 -8 -27 0 -17 8 -18 13 -8 25 11 13 14 13 27 0 8 -8 11 -19 8
-25z m58 -19 c-5 -8 -44 24 -44 35 0 7 10 2 23 -10 13 -12 22 -23 21 -25z
m-1917 2 c-3 -3 -12 -4 -19 -1 -8 3 -5 6 6 6 11 1 17 -2 13 -5z m1520 -20 c-3
-3 -12 -4 -19 -1 -8 3 -5 6 6 6 11 1 17 -2 13 -5z m-1567 -24 c-8 -5 -19 -10
-25 -10 -5 0 -3 5 5 10 8 5 20 10 25 10 6 0 3 -5 -5 -10z m3757 -22 c-3 -8 -6
-5 -6 6 -1 11 2 17 5 13 3 -3 4 -12 1 -19z m-3734 -31 c4 3 7 1 7 -5 0 -6 7
-9 15 -6 8 4 15 1 15 -5 0 -6 7 -11 15 -11 8 0 15 -4 15 -10 0 -13 -27 -13
-35 0 -5 8 -11 7 -20 0 -10 -8 -19 -8 -33 -1 -11 6 -22 7 -26 4 -3 -3 -6 -1
-6 5 0 16 17 24 25 12 3 -5 11 -10 18 -10 6 0 2 6 -8 14 -11 8 -23 12 -27 10
-10 -6 -11 10 -1 19 3 4 14 0 23 -8 9 -8 20 -12 23 -8z m1861 13 c18 -6 26 -6
26 1 0 6 5 7 10 4 6 -4 1 -15 -14 -26 -29 -23 -43 -25 -26 -4 11 13 10 14 -5
9 -12 -5 -16 -4 -12 3 4 6 1 14 -5 16 -24 10 1 7 26 -3z m80 -37 c-9 -7 -20
-10 -25 -8 -4 3 -11 0 -15 -6 -4 -8 -3 -9 4 -5 7 4 12 3 12 -3 0 -5 -9 -9 -20
-8 -11 1 -20 5 -20 10 0 4 -5 5 -10 2 -6 -4 -7 -12 -3 -18 4 -7 -2 -5 -12 3
-17 14 -18 14 -6 -8 12 -22 11 -23 -9 -17 -17 5 -21 4 -15 -6 5 -10 5 -11 -2
-4 -17 16 -26 55 -13 55 6 0 8 -4 5 -10 -3 -5 -1 -10 4 -10 6 0 11 7 11 16 0
11 6 13 19 9 11 -3 22 -1 26 5 3 6 10 8 15 5 5 -3 11 -1 14 4 3 5 17 8 31 7
22 -1 23 -2 9 -13z m-1836 -13 c-14 -22 -24 -19 -15 5 4 8 11 15 17 15 6 0 6
-7 -2 -20z m3629 -12 c-3 -8 -6 -5 -6 6 -1 11 2 17 5 13 3 -3 4 -12 1 -19z
m-472 -14 c19 -20 23 -33 18 -53 -8 -34 -13 -40 -13 -15 0 11 -11 35 -25 54
-28 38 -29 40 -15 40 6 0 22 -12 35 -26z m-3280 -2 c-3 -3 -11 0 -18 7 -9 10
-8 11 6 5 10 -3 15 -9 12 -12z m145 8 c0 -5 -5 -10 -11 -10 -5 0 -7 5 -4 10 3
6 8 10 11 10 2 0 4 -4 4 -10z m2807 -22 c-3 -8 -6 -5 -6 6 -1 11 2 17 5 13 3
-3 4 -12 1 -19z m103 7 c0 -8 -4 -15 -10 -15 -5 0 -10 7 -10 15 0 8 5 15 10
15 6 0 10 -7 10 -15z m-2377 -42 c-16 -6 -17 -32 -3 -53 8 -11 9 -8 4 13 -3
15 -2 27 3 27 14 0 50 -29 36 -30 -7 0 -13 -5 -13 -11 0 -5 5 -7 10 -4 6 3 10
2 10 -4 0 -5 -6 -11 -12 -14 -19 -6 -48 4 -48 16 0 6 -6 3 -12 -6 -16 -21 -78
-35 -78 -18 0 7 5 9 10 6 6 -4 10 5 10 19 0 14 5 26 10 26 6 0 10 -4 10 -10 0
-5 7 -10 16 -10 14 0 15 2 3 17 -12 15 -12 16 4 10 10 -4 17 -2 17 6 0 16 22
39 29 30 3 -3 0 -8 -6 -10z m2287 7 c0 -5 -4 -10 -10 -10 -5 0 -10 5 -10 10 0
6 5 10 10 10 6 0 10 -4 10 -10z m-2245 -10 c3 -5 2 -10 -4 -10 -5 0 -13 5 -16
10 -3 6 -2 10 4 10 5 0 13 -4 16 -10z m2268 -6 c-4 -12 0 -14 21 -8 18 4 26 2
26 -7 0 -12 2 -12 9 0 5 8 11 9 15 3 10 -17 -10 -23 -53 -16 -23 4 -41 8 -41
9 0 12 14 35 21 35 4 0 6 -7 2 -16z m-2513 -56 c0 -4 -6 -5 -14 -2 -8 3 -12
12 -9 21 5 12 7 12 14 1 5 -7 9 -16 9 -20z m290 6 c0 -8 -4 -12 -10 -9 -5 3
-10 10 -10 16 0 5 5 9 10 9 6 0 10 -7 10 -16z m2927 -16 c-3 -8 -6 -5 -6 6 -1
11 2 17 5 13 3 -3 4 -12 1 -19z m-3357 -23 c-7 -8 -20 -15 -29 -14 -11 0 -10
3 7 11 12 6 22 16 22 21 0 6 3 7 6 4 4 -4 1 -13 -6 -22z m3344 9 c3 -8 2 -12
-4 -9 -6 3 -10 10 -10 16 0 14 7 11 14 -7z m-3260 -12 c2 -4 1 -14 -5 -22 -6
-10 -9 -11 -9 -2 0 6 -7 12 -15 12 -8 0 -15 5 -15 10 0 12 37 14 44 2z m295
-8 c7 4 11 -1 11 -13 0 -11 -5 -23 -12 -27 -8 -5 -6 -10 8 -16 15 -6 12 -7
-11 -5 -16 1 -33 6 -37 12 -5 7 -8 6 -8 -1 0 -5 7 -19 16 -30 8 -10 13 -13 9
-6 -3 6 -2 12 4 12 14 0 34 -39 27 -55 -3 -8 -1 -15 3 -17 4 -2 11 -21 14 -42
6 -38 6 -38 -9 -18 -8 12 -12 26 -9 32 3 6 -1 7 -10 4 -13 -5 -15 -2 -9 20 4
19 2 26 -9 26 -8 0 -18 7 -21 16 -3 8 -11 12 -17 8 -8 -5 -10 1 -7 19 3 15 2
24 -3 22 -4 -3 -10 -1 -14 4 -4 7 -15 7 -31 1 -14 -6 -29 -8 -34 -5 -5 3 -11
-3 -13 -12 -3 -10 -5 -3 -6 15 0 18 4 32 10 32 8 0 8 5 -1 15 -11 13 -8 15 19
15 17 0 31 -5 31 -11 0 -6 9 -8 20 -4 11 3 20 2 20 -3 0 -6 9 -8 20 -5 11 3
20 13 20 22 0 13 2 13 9 2 5 -7 14 -10 20 -7z m3095 0 c3 -8 2 -12 -4 -9 -6 3
-10 10 -10 16 0 14 7 11 14 -7z m-2956 -15 c12 -18 11 -24 -1 -36 -18 -18 -37
-10 -32 15 2 9 4 23 4 30 1 18 15 14 29 -9z m-78 -8 c0 -6 -4 -13 -10 -16 -5
-3 -10 1 -10 9 0 9 5 16 10 16 6 0 10 -4 10 -9z m35 -10 c3 -5 1 -12 -4 -15
-5 -3 -11 1 -15 9 -6 16 9 21 19 6z m-33 -33 c-6 -6 -15 -8 -19 -4 -4 4 -1 11
7 16 8 5 17 7 19 4 3 -2 -1 -10 -7 -16z m2898 12 c0 -5 -2 -10 -4 -10 -3 0 -8
5 -11 10 -3 6 -1 10 4 10 6 0 11 -4 11 -10z m-2855 -31 c-4 -5 0 -9 7 -9 10 0
9 -3 -2 -9 -8 -6 -18 -7 -23 -4 -5 3 -13 -1 -18 -8 -4 -7 -12 -10 -16 -5 -4 5
-2 11 6 14 10 3 10 6 1 12 -8 5 -7 9 5 13 9 4 13 3 10 -3 -3 -6 -1 -10 4 -10
6 0 11 7 11 16 0 8 5 12 10 9 6 -4 8 -11 5 -16z m-232 -1 c-4 -7 -7 -22 -6
-33 1 -16 1 -16 -3 -2 -3 9 -10 17 -15 17 -12 0 12 29 24 30 5 0 5 -6 0 -12z
m-568 -8 c3 -5 -1 -10 -9 -10 -9 0 -16 5 -16 10 0 6 4 10 9 10 6 0 13 -4 16
-10z m515 -12 c0 -18 -2 -20 -9 -8 -6 8 -7 18 -5 22 9 14 14 9 14 -14z m370
13 c0 -5 -11 -11 -25 -13 -14 -3 -25 -2 -25 3 0 4 10 10 23 12 12 2 23 5 25 6
1 0 2 -3 2 -8z m2780 -12 c0 -5 -4 -9 -10 -9 -5 0 -10 7 -10 16 0 8 5 12 10 9
6 -3 10 -10 10 -16z m-2940 1 c0 -5 -2 -10 -4 -10 -3 0 -8 5 -11 10 -3 6 -1
10 4 10 6 0 11 -4 11 -10z m211 -14 c4 -5 5 -25 2 -45 -3 -20 -5 -54 -4 -76 0
-22 -4 -34 -8 -27 -9 15 -73 13 -83 -3 -5 -6 -8 -3 -8 8 0 9 -3 17 -8 17 -7 0
-25 30 -38 63 -10 26 -27 20 -22 -8 3 -14 -1 -30 -8 -36 -10 -8 -11 -5 -7 10
3 13 1 21 -8 21 -9 0 -10 3 -2 11 12 12 5 52 -7 44 -5 -3 -11 -1 -14 4 -3 5
10 9 29 8 25 -1 34 -5 31 -14 -3 -7 -1 -13 4 -13 6 0 10 -7 10 -16 0 -9 9 -18
20 -21 11 -3 18 -9 15 -13 -3 -4 2 -10 10 -14 11 -4 13 1 8 24 -3 18 0 36 7
45 16 19 30 19 30 0 0 -8 5 -15 11 -15 7 0 9 11 5 30 -5 26 -3 30 12 28 9 -2
20 -7 23 -12z m-441 -6 c0 -5 -5 -10 -11 -10 -5 0 -7 5 -4 10 3 6 8 10 11 10
2 0 4 -4 4 -10z m340 -30 c-6 -12 -14 -20 -17 -17 -2 3 1 14 8 26 17 26 24 19
9 -9z m2834 -26 c3 -8 2 -12 -4 -9 -6 3 -10 10 -10 16 0 14 7 11 14 -7z
m-3183 -86 c-10 -11 -11 -10 -6 5 4 10 2 17 -4 17 -6 0 -11 5 -11 12 0 8 6 6
17 -5 14 -14 15 -19 4 -29z m314 32 c3 -5 2 -10 -4 -10 -5 0 -13 5 -16 10 -3
6 -2 10 4 10 5 0 13 -4 16 -10z m-245 -28 c0 -5 -7 -9 -15 -9 -8 0 -12 4 -9 9
3 4 9 8 15 8 5 0 9 -4 9 -8z m-36 -42 c-6 -6 -10 -3 -10 10 0 13 4 16 10 10 7
-7 7 -13 0 -20z m264 -25 c-3 -3 -9 2 -12 12 -6 14 -5 15 5 6 7 -7 10 -15 7
-18z m-72 0 c17 -13 17 -14 2 -15 -9 0 -20 5 -23 10 -4 6 -11 8 -16 5 -5 -4
-9 -1 -9 4 0 16 23 13 46 -4z m114 11 c0 -2 -8 -10 -17 -17 -16 -13 -17 -12
-4 4 13 16 21 21 21 13z m-244 -115 c-4 -5 6 -19 21 -30 16 -11 22 -21 14 -21
-7 0 -22 10 -32 22 -11 11 -22 18 -27 14 -4 -4 2 -14 12 -22 22 -16 21 -19
-14 -28 -19 -6 -21 -5 -10 3 13 9 10 15 -15 36 -25 22 -26 25 -8 20 12 -3 24
-1 28 5 3 5 13 10 21 10 8 0 13 -4 10 -9z m438 -26 c15 -15 26 -20 28 -13 4
11 57 -22 183 -112 22 -15 67 -43 102 -61 34 -18 59 -37 56 -42 -3 -5 -8 -5
-12 0 -11 16 -56 31 -84 28 -15 -2 -27 1 -27 6 0 4 -6 6 -14 3 -8 -3 -23 5
-35 17 -12 13 -21 17 -21 11 0 -7 -9 -12 -20 -12 -11 0 -20 4 -20 10 0 5 7 7
15 4 10 -4 15 0 15 12 0 9 -3 14 -7 11 -3 -4 -13 -1 -21 6 -13 9 -14 9 -8 0
14 -25 -14 -13 -30 13 -12 17 -19 21 -24 13 -5 -7 -13 -8 -21 -3 -21 13 -72
13 -89 1 -8 -7 -7 -2 3 10 15 17 16 26 8 40 -10 17 -12 15 -15 -16 0 -8 -7
-16 -14 -18 -8 -3 -10 1 -5 14 5 16 4 16 -14 -2 -13 -12 -17 -24 -12 -29 15
-16 10 -29 -6 -16 -12 10 -15 10 -15 -4 0 -9 -4 -16 -10 -16 -5 0 -10 -7 -10
-16 0 -8 -5 -12 -10 -9 -6 4 -8 11 -5 16 4 5 1 9 -4 9 -6 0 -14 0 -18 0 -5 0
-9 -4 -9 -10 -1 -5 -2 -14 -3 -20 -2 -18 -30 -10 -36 10 -3 11 -11 20 -16 20
-6 0 -7 -5 -3 -11 9 -14 -38 10 -48 25 -4 6 -5 17 -3 25 5 11 3 12 -10 1 -9
-7 -18 -10 -22 -7 -3 4 -12 2 -20 -4 -7 -6 -13 -8 -13 -5 0 4 -10 1 -22 -5
l-23 -11 23 21 c25 24 30 40 7 21 -10 -8 -15 -9 -15 -1 0 13 64 41 94 41 12 0
32 9 43 20 13 12 23 15 25 8 4 -12 78 -3 78 10 0 4 16 7 36 6 19 -1 33 1 29 4
-4 4 29 29 42 32 1 0 13 -11 27 -25z m-334 -15 c-34 -11 -60 -11 -35 0 11 5
29 8 40 8 16 0 15 -2 -5 -8z m190 -180 c0 -5 -4 -10 -10 -10 -5 0 -10 5 -10
10 0 6 5 10 10 10 6 0 10 -4 10 -10z m50 6 c0 -3 -4 -8 -10 -11 -5 -3 -10 -1
-10 4 0 6 5 11 10 11 6 0 10 -2 10 -4z m-620 -50 c-33 -19 -109 -31 -94 -16 6
6 28 13 48 14 20 2 39 6 43 10 3 3 11 6 17 6 6 -1 0 -7 -14 -14z m492 -78
c-13 -6 -21 -17 -18 -24 3 -8 0 -11 -8 -8 -8 3 -17 0 -22 -7 -4 -8 -3 -10 4
-5 6 4 20 2 31 -4 12 -6 29 -7 43 -1 22 8 88 -11 88 -25 0 -3 -5 -2 -12 2 -7
5 -8 3 -4 -5 5 -7 14 -10 22 -7 8 3 14 1 14 -5 0 -5 -7 -12 -16 -16 -15 -5
-15 -7 0 -15 15 -8 13 -12 -11 -31 -15 -12 -32 -27 -36 -34 -4 -7 -15 -13 -22
-13 -8 0 -15 -4 -15 -10 0 -5 -9 -10 -20 -10 -10 0 -23 -7 -28 -17 -5 -9 -19
-17 -30 -18 -11 0 -27 -7 -36 -14 -11 -9 -16 -10 -16 -2 0 11 -38 -5 -51 -21
-3 -4 -28 -7 -55 -6 -37 2 -60 -4 -89 -21 -38 -22 -39 -24 -20 -37 21 -16 25
-14 -48 -19 -16 -1 -35 -12 -43 -24 -9 -12 -19 -19 -24 -16 -5 3 -18 -3 -30
-15 -25 -25 -48 -26 -46 -2 0 9 4 19 8 22 4 3 3 12 -2 20 -7 11 -12 11 -23 2
-7 -7 -16 -9 -20 -6 -8 8 -19 -34 -12 -45 3 -6 12 -8 20 -4 8 3 15 1 15 -5 0
-5 -9 -12 -20 -15 -11 -3 -19 -11 -17 -19 2 -7 2 -10 0 -5 -7 12 -23 8 -23 -5
-1 -22 -49 -49 -88 -49 -66 0 -71 1 -65 18 5 13 2 15 -11 10 -11 -4 -15 -3
-10 4 4 8 -1 9 -17 4 -13 -4 -25 -11 -27 -16 -5 -13 -52 21 -52 38 0 10 6 9
22 -6 11 -11 26 -17 32 -14 7 4 6 8 -2 11 -16 5 -15 32 1 32 8 0 8 3 -2 9 -12
8 -11 13 10 30 32 27 61 26 93 -4 18 -16 26 -20 26 -10 0 8 6 12 14 9 7 -3 23
6 33 20 11 14 23 23 26 20 3 -3 3 4 0 17 -3 12 -2 20 3 17 5 -3 15 0 22 8 7 8
10 14 6 14 -3 0 11 15 32 34 33 30 40 32 45 18 5 -13 7 -12 10 8 4 23 8 25 54
23 39 -1 52 2 63 18 7 11 18 17 23 14 5 -4 9 1 9 9 0 9 5 16 10 16 6 0 10 6
10 13 0 7 14 18 30 24 17 6 30 17 30 25 0 10 -3 9 -11 -2 -9 -13 -10 -13 -6 0
2 8 11 14 21 12 9 -2 16 1 16 6 0 6 20 16 45 23 32 10 41 16 34 25 -7 9 10 20
68 43 76 29 121 41 75 19z m708 -44 c0 -58 -17 -142 -31 -159 -10 -11 -12 100
-3 169 10 69 34 62 34 -10z m-58 -21 c8 -10 5 -13 -11 -13 -22 0 -26 15 -14
47 7 17 8 17 11 -2 2 -11 9 -26 14 -32z m-817 -3 c-3 -5 -12 -10 -18 -10 -7 0
-6 4 3 10 19 12 23 12 15 0z m815 -91 c0 -5 -4 -9 -10 -9 -5 0 -10 7 -10 16 0
8 5 12 10 9 6 -3 10 -10 10 -16z m488 -14 c-3 -3 -9 2 -12 12 -6 14 -5 15 5 6
7 -7 10 -15 7 -18z m-1044 -550 c3 -92 2 -115 -7 -100 -14 26 -21 243 -7 229
5 -5 12 -64 14 -129z m1236 -19 c0 -2 -7 -9 -15 -16 -12 -10 -15 -10 -15 4 0
9 7 16 15 16 8 0 15 -2 15 -4z m-2090 -15 c0 -5 -7 -11 -14 -14 -10 -4 -13 -1
-9 9 6 15 23 19 23 5z m240 -36 c0 -8 -7 -15 -15 -15 -8 0 -15 5 -15 11 0 5 5
7 10 4 6 -3 10 -1 10 4 0 6 2 11 5 11 3 0 5 -7 5 -15z m580 -25 c0 -5 -2 -10
-4 -10 -3 0 -8 5 -11 10 -3 6 -1 10 4 10 6 0 11 -4 11 -10z m65 -70 c3 -5 1
-10 -4 -10 -6 0 -11 5 -11 10 0 6 2 10 4 10 3 0 8 -4 11 -10z m-141 -95 c5
-22 4 -26 -4 -15 -5 8 -10 24 -10 34 0 26 6 18 14 -19z m26 26 c0 -5 3 -16 6
-25 4 -10 1 -16 -7 -16 -7 0 -9 3 -6 6 3 4 2 15 -4 25 -6 13 -6 19 1 19 5 0
10 -4 10 -9z"/>
<path d="M2660 3380 c-12 -8 -12 -10 3 -16 21 -8 35 2 21 16 -5 5 -15 6 -24 0z"/>
<path d="M2840 3240 c0 -5 5 -10 11 -10 5 0 7 5 4 10 -3 6 -8 10 -11 10 -2 0
-4 -4 -4 -10z"/>
<path d="M2880 3171 c0 -5 7 -12 16 -15 14 -5 15 -4 4 9 -14 17 -20 19 -20 6z"/>
<path d="M2195 2890 c3 -5 11 -10 16 -10 6 0 7 5 4 10 -3 6 -11 10 -16 10 -6
0 -7 -4 -4 -10z"/>
<path d="M2495 2657 c1 -32 15 -67 26 -67 11 0 11 11 -1 30 -5 9 -5 17 1 20 5
4 2 14 -9 23 -17 15 -18 15 -17 -6z"/>
<path d="M2490 2576 c0 -9 5 -16 10 -16 6 0 10 4 10 9 0 6 -4 13 -10 16 -5 3
-10 -1 -10 -9z"/>
<path d="M1930 2311 c0 -6 4 -13 10 -16 6 -3 7 1 4 9 -7 18 -14 21 -14 7z"/>
<path d="M631 1924 c0 -11 3 -14 6 -6 3 7 2 16 -1 19 -3 4 -6 -2 -5 -13z"/>
<path d="M810 1420 c0 -5 5 -10 10 -10 6 0 10 5 10 10 0 6 -4 10 -10 10 -5 0
-10 -4 -10 -10z"/>
<path d="M960 1370 c0 -5 5 -10 10 -10 6 0 10 5 10 10 0 6 -4 10 -10 10 -5 0
-10 -4 -10 -10z"/>
<path d="M3263 3423 c-15 -5 -17 -23 -4 -23 5 0 11 7 15 15 3 8 4 15 3 14 -1
0 -8 -3 -14 -6z"/>
<path d="M3270 3370 c0 -5 5 -10 11 -10 5 0 7 5 4 10 -3 6 -8 10 -11 10 -2 0
-4 -4 -4 -10z"/>
<path d="M2646 3265 c-3 -8 -1 -15 4 -15 14 0 12 -27 -2 -33 -8 -4 -7 -6 3 -6
9 -1 19 6 23 14 6 15 36 10 36 -7 0 -5 -4 -6 -10 -3 -6 3 -7 -1 -4 -9 10 -27
20 -18 20 17 -1 31 -3 34 -29 31 -15 -2 -25 0 -22 5 3 5 1 12 -4 15 -5 3 -11
-1 -15 -9z"/>
<path d="M2957 3264 c-3 -3 -3 -13 0 -22 6 -15 4 -15 -14 1 -15 13 -23 15 -28
7 -4 -7 -2 -17 4 -23 14 -14 15 -30 1 -22 -16 10 -12 -1 6 -15 8 -8 14 -9 13
-4 -4 21 2 33 14 28 8 -3 14 1 14 8 0 7 4 21 8 31 7 16 -5 24 -18 11z"/>
<path d="M3281 3254 c0 -11 3 -14 6 -6 3 7 2 16 -1 19 -3 4 -6 -2 -5 -13z"/>
<path d="M2565 3250 c3 -5 10 -10 16 -10 5 0 9 5 9 10 0 6 -7 10 -16 10 -8 0
-12 -4 -9 -10z"/>
<path d="M3110 3242 c0 -4 9 -13 21 -20 19 -12 19 -11 9 8 -10 19 -30 28 -30
12z"/>
<path d="M2986 3231 c-4 -5 -3 -16 0 -24 4 -11 -2 -17 -18 -20 -22 -5 -21 -5
2 -4 20 2 25 7 25 30 1 29 -1 32 -9 18z"/>
<path d="M3240 3231 c0 -4 16 -13 37 -19 40 -12 34 -3 -9 16 -16 6 -28 8 -28
3z"/>
<path d="M3112 3206 c4 -5 2 -16 -5 -25 -10 -14 -10 -14 4 -4 27 22 29 3 3
-44 -27 -52 -27 -53 -15 -53 5 0 12 12 16 28 4 15 10 21 12 15 3 -7 10 -13 16
-13 8 0 7 4 -1 12 -17 17 -15 29 3 22 13 -5 14 -2 6 19 -5 14 -7 29 -3 33 4 5
3 6 -2 2 -5 -4 -16 -2 -25 4 -9 7 -13 8 -9 4z"/>
<path d="M3240 3177 c0 -19 16 -31 24 -18 3 5 -1 14 -9 21 -12 10 -15 10 -15
-3z"/>
<path d="M3297 3177 c-3 -8 0 -14 7 -14 6 0 17 6 24 14 10 10 9 13 -7 13 -10
0 -21 -6 -24 -13z"/>
<path d="M3005 3171 c-3 -5 -1 -12 5 -16 5 -3 10 1 10 9 0 18 -6 21 -15 7z"/>
<path d="M3160 3172 c0 -5 9 -17 20 -27 11 -10 20 -15 20 -12 0 4 -9 16 -20
27 -11 11 -20 16 -20 12z"/>
<path d="M2962 3157 c-8 -10 -6 -13 7 -13 11 0 17 6 14 13 -3 7 -6 13 -8 13
-1 0 -7 -6 -13 -13z"/>
<path d="M2651 3150 c3 -27 -1 -40 -12 -40 -5 0 -7 5 -4 10 3 6 -1 10 -10 10
-13 0 -14 -4 -5 -20 6 -11 12 -20 13 -20 1 0 16 14 32 32 17 18 24 28 16 24
-8 -5 -17 -3 -23 5 -7 12 -9 11 -7 -1z"/>
<path d="M2705 3140 c-3 -6 1 -7 9 -4 18 7 21 14 7 14 -6 0 -13 -4 -16 -10z"/>
<path d="M2987 3129 c-9 -5 -22 -7 -29 -3 -7 4 -8 3 -4 -4 11 -18 56 -15 56 3
0 18 0 17 -23 4z"/>
<path d="M3224 3116 c-19 -14 -18 -15 3 -13 12 0 20 4 17 8 -2 4 2 10 8 12 7
3 8 6 2 6 -5 1 -19 -5 -30 -13z"/>
<path d="M2676 3111 c-6 -9 26 -51 39 -51 5 0 -2 11 -14 24 -17 18 -19 25 -9
29 9 4 9 6 1 6 -6 1 -14 -3 -17 -8z"/>
<path d="M3026 3102 c-3 -4 4 -9 15 -9 23 -2 25 3 4 10 -8 4 -16 3 -19 -1z"/>
<path d="M2423 3088 c2 -7 10 -13 17 -13 7 0 15 6 18 13 2 7 -5 12 -18 12 -13
0 -20 -5 -17 -12z"/>
<path d="M2603 3082 c1 -12 6 -18 15 -15 7 3 10 9 5 12 -4 3 -11 10 -15 15 -4
4 -6 -1 -5 -12z"/>
<path d="M2720 3096 c0 -2 7 -7 16 -10 8 -3 12 -2 9 4 -6 10 -25 14 -25 6z"/>
<path d="M2761 3096 c2 -2 15 -9 29 -15 24 -11 24 -11 6 3 -16 13 -49 24 -35
12z"/>
<path d="M2760 3070 c0 -5 5 -10 11 -10 5 0 7 5 4 10 -3 6 -8 10 -11 10 -2 0
-4 -4 -4 -10z"/>
<path d="M2660 3066 c0 -2 7 -7 16 -10 8 -3 12 -2 9 4 -6 10 -25 14 -25 6z"/>
<path d="M3065 3047 c8 -13 12 -27 8 -31 -4 -4 1 -4 10 0 17 6 16 8 -4 30 -28
30 -34 31 -14 1z"/>
<path d="M3128 3063 c7 -3 16 -2 19 1 4 3 -2 6 -13 5 -11 0 -14 -3 -6 -6z"/>
<path d="M2870 3052 c0 -10 23 -22 42 -22 12 0 1 15 -10 15 -4 0 -13 4 -19 8
-7 5 -13 4 -13 -1z"/>
<path d="M2980 3050 c0 -7 -6 -10 -14 -7 -8 3 -16 -2 -19 -14 -5 -18 -4 -18
24 1 23 17 32 19 50 10 17 -10 20 -9 17 2 -6 16 -58 24 -58 8z"/>
<path d="M2754 3042 c4 -7 2 -12 -4 -12 -6 0 -4 -10 6 -25 9 -14 23 -25 31
-25 11 0 14 -7 11 -25 -3 -16 -1 -25 7 -25 17 0 37 25 28 34 -4 4 0 4 9 1 9
-4 18 -15 21 -25 3 -12 0 -17 -8 -14 -7 3 -16 -1 -21 -8 -4 -7 -4 -10 1 -6 4
4 14 3 20 -2 8 -7 18 -3 31 12 10 12 14 19 9 15 -6 -3 -16 3 -23 14 -11 17 -9
19 10 19 l21 0 -23 25 c-13 14 -26 23 -28 20 -3 -3 3 -12 14 -20 19 -14 19
-14 -1 -16 -11 -1 -24 -1 -29 0 -5 1 -13 -4 -17 -11 -7 -10 -9 -9 -9 4 0 9 5
20 10 23 6 3 10 11 10 18 0 6 -6 2 -14 -8 -12 -16 -16 -17 -30 -6 -9 7 -16 19
-16 27 0 7 -5 16 -12 20 -7 4 -8 3 -4 -4z"/>
<path d="M2780 3041 c0 -10 19 -25 25 -20 1 2 -3 10 -11 17 -8 7 -14 8 -14 3z"/>
<path d="M3686 3037 c3 -10 9 -15 12 -12 3 3 0 11 -7 18 -10 9 -11 8 -5 -6z"/>
<path d="M2580 3029 c-13 -9 -12 -10 3 -5 21 7 49 -3 41 -15 -3 -5 0 -9 7 -9
6 0 18 -8 26 -17 8 -10 12 -12 8 -5 -4 7 0 12 10 12 9 0 13 -4 10 -10 -3 -6 4
-10 16 -10 22 0 22 0 3 15 -10 8 -25 15 -33 15 -8 0 -19 6 -25 14 -16 20 -48
27 -66 15z"/>
<path d="M2650 3031 c0 -6 4 -12 8 -15 5 -3 9 1 9 9 0 8 -4 15 -9 15 -4 0 -8
-4 -8 -9z"/>
<path d="M2417 3023 c-4 -3 -2 -12 4 -19 9 -11 4 -18 -20 -31 -31 -18 -36 -33
-13 -41 7 -2 10 2 6 12 -5 13 0 16 27 14 44 -4 62 -25 40 -48 -9 -9 -19 -12
-22 -7 -3 5 -9 1 -12 -8 -4 -9 -3 -13 3 -10 6 3 10 2 10 -4 0 -5 -4 -12 -10
-16 -11 -7 -2 -35 11 -35 4 0 6 6 4 13 -3 6 -1 19 5 27 7 11 12 12 21 3 9 -9
17 -8 36 4 l24 16 -31 27 c-27 24 -29 28 -13 34 15 6 12 12 -19 42 -39 36 -41
37 -51 27z m54 -45 c11 -20 10 -22 -3 -10 -13 10 -17 10 -21 0 -4 -10 -7 -11
-18 0 -11 10 -10 12 4 12 9 0 17 5 17 10 0 16 9 11 21 -12z m32 -74 c3 -3 1
-12 -6 -19 -9 -9 -14 -9 -24 1 -7 7 -13 15 -13 18 0 8 35 8 43 0z"/>
<path d="M2886 3008 c11 -15 27 -26 38 -25 13 1 22 -6 27 -23 6 -23 7 -22 8 9
1 19 -2 31 -6 28 -3 -4 -12 -2 -20 5 -7 6 -16 8 -20 4 -3 -3 -15 2 -27 11 -20
18 -20 18 0 -9z"/>
<path d="M3000 3020 c-9 -6 -10 -10 -3 -10 6 0 15 5 18 10 8 12 4 12 -15 0z"/>
<path d="M2564 2998 c-3 -4 -14 -8 -24 -8 -10 0 -21 -4 -24 -8 -3 -5 5 -8 17
-7 12 1 30 -2 41 -7 14 -8 17 -7 11 3 -6 9 0 11 24 6 20 -4 30 -3 26 3 -3 6
-15 10 -26 10 -11 0 -18 4 -15 8 3 5 -2 9 -10 9 -8 0 -17 -4 -20 -9z m16 -8
c0 -5 -5 -10 -11 -10 -5 0 -7 5 -4 10 3 6 8 10 11 10 2 0 4 -4 4 -10z"/>
<path d="M2914 2972 c-10 -7 -13 -87 -4 -94 24 -18 64 -28 74 -18 8 9 7 11 -4
9 -26 -5 -58 11 -63 32 -4 13 -1 19 6 16 7 -3 11 -10 9 -17 -2 -8 3 -10 13 -6
8 3 22 9 30 12 8 3 15 1 15 -6 0 -6 5 -8 10 -5 22 13 9 27 -19 22 -31 -6 -58
13 -46 33 3 5 1 10 -5 10 -6 0 -8 5 -5 10 7 12 4 12 -11 2z"/>
<path d="M2985 2970 c3 -5 10 -10 16 -10 5 0 9 5 9 10 0 6 -7 10 -16 10 -8 0
-12 -4 -9 -10z"/>
<path d="M2272 2960 c-1 -19 16 -60 17 -42 1 7 6 10 12 7 11 -7 55 32 46 41
-2 2 -10 -2 -17 -11 -17 -20 -47 -19 -53 3 -3 11 -5 12 -5 2z"/>
<path d="M2500 2944 c0 -13 3 -14 14 -5 10 8 16 9 21 1 3 -6 11 -7 18 -3 7 4
4 9 -9 14 -31 12 -44 10 -44 -7z"/>
<path d="M2620 2952 c-8 -3 -27 -13 -41 -23 -14 -10 -28 -17 -30 -16 -2 1 3
-4 11 -11 8 -7 14 -18 13 -23 -4 -14 13 -11 27 6 7 8 18 15 25 15 6 0 12 7 12
15 0 11 -7 13 -21 9 -20 -6 -20 -6 -2 9 11 8 29 12 40 9 12 -3 17 -1 13 3 -10
11 -28 14 -47 7z m-30 -36 c0 -3 -4 -8 -10 -11 -5 -3 -10 -1 -10 4 0 6 5 11
10 11 6 0 10 -2 10 -4z"/>
<path d="M2690 2950 c-12 -7 -10 -9 7 -7 12 0 19 5 17 9 -6 10 -6 10 -24 -2z"/>
<path d="M2728 2940 c-10 -11 -13 -22 -8 -25 6 -4 10 -1 10 5 0 6 4 8 10 5 6
-4 7 1 4 12 -4 10 7 2 25 -17 17 -19 28 -27 25 -17 -3 9 -10 17 -14 17 -4 0
-10 9 -13 20 -6 25 -18 25 -39 0z"/>
<path d="M2354 2894 c0 -24 3 -44 8 -44 4 0 8 -7 8 -15 0 -8 5 -15 10 -15 14
0 12 28 -2 32 -8 3 -12 18 -10 40 2 20 0 38 -5 41 -4 3 -8 -15 -9 -39z"/>
<path d="M2405 2920 c-11 -12 -14 -26 -10 -39 9 -28 25 -17 19 13 -3 20 1 25
18 28 19 3 20 4 6 10 -10 4 -23 0 -33 -12z"/>
<path d="M2256 2921 c-4 -7 -5 -15 -2 -18 9 -9 19 4 14 18 -4 11 -6 11 -12 0z"/>
<path d="M2685 2911 c3 -5 0 -11 -7 -14 -7 -2 -3 -2 10 0 12 2 22 -2 22 -8 0
-7 3 -9 6 -6 8 8 -14 37 -28 37 -5 0 -7 -4 -3 -9z"/>
<path d="M2281 2886 c-14 -15 -19 -26 -12 -31 6 -3 11 -2 11 3 0 6 9 8 19 5
15 -4 19 0 17 21 -1 32 -7 32 -35 2z m24 -6 c3 -5 1 -10 -4 -10 -6 0 -11 5
-11 10 0 6 2 10 4 10 3 0 8 -4 11 -10z"/>
<path d="M2750 2900 c0 -5 5 -10 11 -10 5 0 7 5 4 10 -3 6 -8 10 -11 10 -2 0
-4 -4 -4 -10z"/>
<path d="M2330 2884 c0 -8 5 -12 10 -9 6 4 8 11 5 16 -9 14 -15 11 -15 -7z"/>
<path d="M2816 2889 c3 -6 0 -16 -7 -21 -11 -8 -10 -9 4 -4 15 5 17 0 14 -28
-3 -26 -1 -33 9 -29 17 6 18 20 2 27 -7 3 -4 4 7 3 11 -2 19 -9 18 -15 -2 -7
2 -12 7 -12 17 0 11 18 -12 34 -12 9 -19 18 -16 21 3 3 19 -5 35 -19 17 -15
34 -21 42 -17 9 6 8 11 -5 22 -15 11 -16 12 -10 0 6 -9 5 -12 -5 -9 -8 3 -13
13 -13 22 1 12 -3 15 -16 11 -10 -3 -25 1 -33 10 -18 17 -31 20 -21 4z"/>
<path d="M2540 2865 c-10 -12 -15 -13 -20 -4 -6 8 -9 8 -14 0 -4 -6 -4 -11 1
-12 4 0 16 -2 26 -4 9 -2 17 1 17 6 0 6 4 7 10 4 6 -3 7 1 4 9 -8 20 -9 20
-24 1z"/>
<path d="M2765 2870 c-3 -5 1 -10 10 -10 9 0 13 5 10 10 -3 6 -8 10 -10 10 -2
0 -7 -4 -10 -10z"/>
<path d="M2640 2860 c-23 -8 -22 -8 8 -7 17 1 32 5 32 9 0 9 -6 9 -40 -2z"/>
<path d="M2595 2843 c1 -10 -3 -25 -9 -33 -10 -13 -9 -13 7 -1 18 15 22 36 8
45 -5 4 -8 -2 -6 -11z"/>
<path d="M2796 2835 c-3 -9 -11 -13 -17 -9 -8 4 -9 3 -5 -4 4 -7 11 -12 16
-12 9 0 23 31 16 37 -2 2 -6 -3 -10 -12z"/>
<path d="M2536 2805 c-15 -19 -23 -35 -17 -35 5 0 18 16 30 35 11 19 19 35 17
35 -2 0 -16 -16 -30 -35z"/>
<path d="M2632 2828 c-7 -7 -12 -17 -12 -22 0 -6 5 -3 11 8 9 14 13 16 20 5 4
-7 11 -11 14 -8 3 4 -1 11 -8 17 -10 9 -17 8 -25 0z"/>
<path d="M2738 2833 c7 -3 16 -2 19 1 4 3 -2 6 -13 5 -11 0 -14 -3 -6 -6z"/>
<path d="M2515 2820 c3 -5 8 -10 11 -10 2 0 4 5 4 10 0 6 -5 10 -11 10 -5 0
-7 -4 -4 -10z"/>
<path d="M2491 2801 c-8 -5 -9 -11 -3 -15 5 -3 12 1 16 9 6 17 6 18 -13 6z"/>
<path d="M2770 2789 c0 -5 5 -7 10 -4 6 3 10 8 10 11 0 2 -4 4 -10 4 -5 0 -10
-5 -10 -11z"/>
<path d="M2651 2774 c0 -11 3 -14 6 -6 3 7 2 16 -1 19 -3 4 -6 -2 -5 -13z"/>
<path d="M2845 2779 c-4 -6 -5 -12 -2 -15 2 -3 7 2 10 11 7 17 1 20 -8 4z"/>
<path d="M2680 2764 c0 -8 5 -12 10 -9 6 4 8 11 5 16 -9 14 -15 11 -15 -7z"/>
<path d="M2535 2749 c-11 -16 -1 -19 13 -3 7 8 8 14 3 14 -5 0 -13 -5 -16 -11z"/>
<path d="M2816 2745 c4 -8 11 -15 16 -15 6 0 5 6 -2 15 -7 8 -14 15 -16 15 -2
0 -1 -7 2 -15z"/>
<path d="M2625 2740 c3 -5 8 -10 11 -10 2 0 4 5 4 10 0 6 -5 10 -11 10 -5 0
-7 -4 -4 -10z"/>
<path d="M2610 2716 c5 -14 5 -28 0 -31 -4 -3 -13 7 -18 22 -9 26 -10 25 -8
-13 l1 -42 25 18 c14 10 27 19 30 21 3 1 16 -3 29 -10 19 -11 22 -11 18 1 -2
7 -10 12 -16 11 -14 -4 -14 10 0 24 8 8 8 13 0 17 -6 4 -11 1 -11 -7 0 -8 -9
-17 -20 -20 -13 -3 -20 0 -20 8 0 8 -4 17 -10 20 -7 4 -7 -2 0 -19z"/>
<path d="M2710 2679 c0 -4 7 -10 16 -13 8 -3 13 -2 9 3 -3 5 1 11 7 14 7 3 3
4 -9 4 -13 -1 -23 -4 -23 -8z"/>
<path d="M2680 2652 c0 -5 11 -14 25 -20 15 -7 25 -8 25 -2 0 6 -7 10 -15 10
-8 0 -15 5 -15 10 0 6 -4 10 -10 10 -5 0 -10 -4 -10 -8z"/>
<path d="M2743 2645 c-3 -9 -3 -18 -1 -21 3 -3 8 4 11 16 6 23 -1 27 -10 5z"/>
<path d="M3161 2617 c-13 -21 -12 -21 5 -5 10 10 16 20 13 22 -3 3 -11 -5 -18
-17z"/>
<path d="M3094 2564 c1 -8 4 -15 7 -16 2 -2 3 -1 2 1 -2 2 2 9 7 16 7 8 5 12
-4 12 -8 0 -13 -6 -12 -13z"/>
<path d="M2936 2545 c-3 -8 -1 -15 4 -15 6 0 10 7 10 15 0 8 -2 15 -4 15 -2 0
-6 -7 -10 -15z"/>
<path d="M3190 2549 c0 -5 9 -9 19 -9 11 0 22 4 25 9 3 5 -6 9 -19 9 -14 0
-25 -4 -25 -9z"/>
<path d="M3190 2520 c-9 -6 -10 -10 -3 -10 6 0 15 5 18 10 8 12 4 12 -15 0z"/>
<path d="M3350 2451 c0 -6 4 -13 10 -16 6 -3 7 1 4 9 -7 18 -14 21 -14 7z"/>
<path d="M3683 2423 c-1 -19 1 -22 8 -12 11 17 12 39 2 39 -5 0 -9 -12 -10
-27z"/>
<path d="M2455 2420 c3 -5 8 -10 11 -10 2 0 4 5 4 10 0 6 -5 10 -11 10 -5 0
-7 -4 -4 -10z"/>
<path d="M3330 2396 c0 -2 7 -9 15 -16 9 -7 15 -8 15 -2 0 5 -7 12 -15 16 -8
3 -15 4 -15 2z"/>
<path d="M2436 2378 c3 -5 10 -6 15 -3 13 9 11 12 -6 12 -8 0 -12 -4 -9 -9z"/>
<path d="M2440 2340 c0 -5 5 -10 11 -10 5 0 7 5 4 10 -3 6 -8 10 -11 10 -2 0
-4 -4 -4 -10z"/>
<path d="M3462 2333 c11 -14 10 -15 -9 -9 -13 4 -24 2 -29 -5 -5 -8 -2 -10 8
-7 8 4 21 2 29 -3 12 -7 12 -9 -1 -9 -10 0 -7 -7 10 -19 19 -15 22 -22 12 -34
-13 -15 -2 -28 45 -54 30 -17 38 -16 23 2 -7 8 -21 15 -31 15 -10 0 -21 5 -25
12 -5 8 -2 9 9 5 11 -4 17 -1 17 9 0 8 5 12 10 9 6 -4 7 -12 3 -18 -4 -8 -1
-7 9 1 10 8 19 9 22 3 3 -5 1 -11 -6 -13 -8 -3 -6 -7 5 -11 11 -4 17 -1 17 8
0 14 -25 44 -38 46 -28 3 -46 9 -56 20 -8 9 -7 10 7 6 11 -4 16 -3 12 3 -3 6
-1 10 6 10 18 0 -18 37 -42 43 -17 5 -18 3 -7 -10z m32 -18 c3 -8 1 -15 -4
-15 -6 0 -10 7 -10 15 0 8 2 15 4 15 2 0 6 -7 10 -15z"/>
<path d="M1290 2270 c0 -5 4 -10 9 -10 6 0 13 5 16 10 3 6 -1 10 -9 10 -9 0
-16 -4 -16 -10z"/>
<path d="M3435 2270 c3 -5 8 -10 11 -10 2 0 4 5 4 10 0 6 -5 10 -11 10 -5 0
-7 -4 -4 -10z"/>
<path d="M3710 2260 c0 -8 5 -22 10 -30 9 -13 10 -13 10 0 0 8 -5 22 -10 30
-9 13 -10 13 -10 0z"/>
<path d="M1511 2244 c0 -11 3 -14 6 -6 3 7 2 16 -1 19 -3 4 -6 -2 -5 -13z"/>
<path d="M3460 2216 c0 -2 8 -10 18 -17 15 -13 16 -12 3 4 -13 16 -21 21 -21
13z"/>
<path d="M971 2184 c0 -11 3 -14 6 -6 3 7 2 16 -1 19 -3 4 -6 -2 -5 -13z"/>
<path d="M1706 2153 c-6 -14 -5 -15 5 -6 7 7 10 15 7 18 -3 3 -9 -2 -12 -12z"/>
<path d="M1757 2163 c-3 -5 -1 -17 4 -28 7 -17 8 -17 8 8 1 27 -4 34 -12 20z"/>
<path d="M2360 2151 c0 -6 4 -12 8 -15 5 -3 9 1 9 9 0 8 -4 15 -9 15 -4 0 -8
-4 -8 -9z"/>
<path d="M1670 2133 c-7 -11 -20 -19 -27 -16 -7 3 -13 -2 -13 -11 0 -9 7 -16
16 -16 13 0 14 -3 5 -14 -9 -11 -5 -15 21 -19 42 -6 45 -3 19 20 -12 9 -21 24
-21 31 0 12 3 12 16 2 12 -11 18 -10 32 4 16 17 16 18 -5 12 -16 -5 -22 -2
-25 11 -4 16 -5 16 -18 -4z"/>
<path d="M1755 2090 c3 -5 8 -10 11 -10 2 0 4 5 4 10 0 6 -5 10 -11 10 -5 0
-7 -4 -4 -10z"/>
<path d="M2870 2080 c0 -5 5 -10 11 -10 5 0 7 5 4 10 -3 6 -8 10 -11 10 -2 0
-4 -4 -4 -10z"/>
<path d="M0 2043 l1 -38 14 34 c18 41 18 41 0 41 -11 0 -15 -11 -15 -37z"/>
<path d="M1020 2044 c0 -3 7 -12 15 -20 13 -13 15 -13 15 -1 0 8 -7 17 -15 21
-8 3 -15 3 -15 0z"/>
<path d="M2753 2034 c-3 -9 -13 -14 -24 -11 -11 3 -19 1 -19 -4 0 -13 44 -11
58 3 15 15 16 28 2 28 -6 0 -13 -7 -17 -16z"/>
<path d="M920 2031 c0 -5 5 -13 11 -17 6 -3 9 -15 6 -25 -3 -11 -1 -16 4 -13
13 8 5 57 -9 62 -7 2 -12 -1 -12 -7z"/>
<path d="M890 2010 c0 -5 5 -10 10 -10 6 0 10 5 10 10 0 6 -4 10 -10 10 -5 0
-10 -4 -10 -10z"/>
<path d="M2775 2001 c-3 -5 0 -13 6 -17 8 -5 9 -3 4 6 -6 10 -4 12 9 7 10 -4
15 -3 11 3 -8 13 -22 13 -30 1z"/>
<path d="M1910 1996 c0 -2 7 -7 16 -10 8 -3 12 -2 9 4 -6 10 -25 14 -25 6z"/>
<path d="M3238 1993 c6 -2 10 -9 6 -14 -8 -13 9 -11 29 4 15 10 13 12 -15 14
-18 0 -27 -1 -20 -4z"/>
<path d="M3290 1960 c-13 -8 -12 -10 3 -10 9 0 17 5 17 10 0 12 -1 12 -20 0z"/>
<path d="M2846 1951 c-4 -5 3 -7 14 -4 23 6 26 13 6 13 -8 0 -17 -4 -20 -9z"/>
<path d="M3122 1948 c2 -6 10 -14 16 -16 7 -2 10 2 6 12 -7 18 -28 22 -22 4z"/>
<path d="M246 1941 c-31 -7 -58 -51 -31 -51 8 0 15 -7 15 -15 0 -8 5 -15 10
-15 6 0 10 5 10 10 0 6 3 9 8 9 19 -3 25 2 12 11 -10 7 -12 12 -4 18 6 4 11
15 11 25 0 9 -1 16 -1 16 -1 -1 -14 -4 -30 -8z"/>
<path d="M3176 1937 c5 -15 54 -19 54 -4 0 5 8 3 18 -6 15 -13 19 -13 30 -1 7
8 9 14 5 15 -62 8 -111 6 -107 -4z"/>
<path d="M185 1920 c3 -5 8 -10 11 -10 2 0 4 5 4 10 0 6 -5 10 -11 10 -5 0 -7
-4 -4 -10z"/>
<path d="M2949 1889 c12 -10 21 -20 21 -23 0 -9 -43 14 -52 28 -5 8 -8 7 -8
-2 0 -7 7 -15 16 -19 8 -3 13 -12 10 -20 -4 -8 -1 -11 5 -7 6 4 14 1 18 -5 11
-17 99 -2 104 18 9 42 -2 50 -70 48 -63 -1 -64 -2 -44 -18z"/>
<path d="M2880 1890 c0 -5 5 -10 11 -10 5 0 7 5 4 10 -3 6 -8 10 -11 10 -2 0
-4 -4 -4 -10z"/>
<path d="M153 1875 c0 -18 19 -15 25 3 2 7 -3 12 -10 12 -8 0 -15 -7 -15 -15z"/>
<path d="M490 1881 c0 -5 5 -13 10 -16 6 -3 10 -2 10 4 0 5 -4 13 -10 16 -5 3
-10 2 -10 -4z"/>
<path d="M1840 1860 c0 -5 7 -10 16 -10 8 0 12 5 9 10 -3 6 -10 10 -16 10 -5
0 -9 -4 -9 -10z"/>
<path d="M3180 1857 c0 -1 -4 -16 -9 -34 -7 -25 -6 -31 5 -26 7 3 13 8 12 11
-3 28 4 41 19 35 11 -4 14 -3 9 5 -6 10 -36 18 -36 9z"/>
<path d="M178 1843 c7 -3 16 -2 19 1 4 3 -2 6 -13 5 -11 0 -14 -3 -6 -6z"/>
<path d="M360 1846 c0 -2 7 -7 16 -10 8 -3 12 -2 9 4 -6 10 -25 14 -25 6z"/>
<path d="M3000 1820 c0 -5 5 -10 10 -10 6 0 10 5 10 10 0 6 -4 10 -10 10 -5 0
-10 -4 -10 -10z"/>
<path d="M2927 1809 c7 -7 15 -10 18 -7 3 3 -2 9 -12 12 -14 6 -15 5 -6 -5z"/>
<path d="M160 1799 c0 -5 5 -7 10 -4 6 3 10 8 10 11 0 2 -4 4 -10 4 -5 0 -10
-5 -10 -11z"/>
<path d="M2110 1785 c0 -8 2 -15 4 -15 2 0 6 7 10 15 3 8 1 15 -4 15 -6 0 -10
-7 -10 -15z"/>
<path d="M2970 1780 c20 -13 33 -13 25 0 -3 6 -14 10 -23 10 -15 0 -15 -2 -2
-10z"/>
<path d="M2130 1762 c0 -5 7 -15 15 -22 8 -7 15 -9 15 -6 0 4 -7 14 -15 22 -8
9 -15 11 -15 6z"/>
<path d="M422 1720 c0 -14 2 -19 5 -12 2 6 2 18 0 25 -3 6 -5 1 -5 -13z"/>
<path d="M2986 1723 c-6 -14 -5 -15 5 -6 7 7 10 15 7 18 -3 3 -9 -2 -12 -12z"/>
<path d="M206 1713 c-4 -10 0 -13 14 -11 26 4 31 20 8 24 -9 1 -19 -5 -22 -13z"/>
<path d="M266 1717 c3 -10 9 -15 12 -12 3 3 0 11 -7 18 -10 9 -11 8 -5 -6z"/>
<path d="M1385 1720 c3 -5 8 -10 11 -10 2 0 4 5 4 10 0 6 -5 10 -11 10 -5 0
-7 -4 -4 -10z"/>
<path d="M344 1694 c3 -9 6 -18 6 -20 0 -2 7 -4 15 -4 13 0 13 3 3 20 -15 24
-33 27 -24 4z"/>
<path d="M2996 1702 c-3 -5 1 -9 9 -9 8 0 12 4 9 9 -3 4 -7 8 -9 8 -2 0 -6 -4
-9 -8z"/>
<path d="M244 1689 c-3 -5 1 -9 10 -9 8 0 16 -4 18 -9 2 -4 14 -12 28 -16 24
-7 24 -7 5 9 l-20 16 20 -7 c17 -6 18 -5 7 9 -13 17 -59 21 -68 7z"/>
<path d="M2155 1680 c-3 -6 1 -7 9 -4 18 7 21 14 7 14 -6 0 -13 -4 -16 -10z"/>
<path d="M395 1670 c-8 -13 5 -13 25 0 13 8 13 10 -2 10 -9 0 -20 -4 -23 -10z"/>
<path d="M200 1650 c0 -6 -7 -10 -15 -10 -8 0 -15 -5 -15 -11 0 -7 7 -8 18 -4
9 4 23 8 30 8 17 1 15 14 -3 21 -8 3 -15 1 -15 -4z"/>
<path d="M251 1644 c0 -11 3 -14 6 -6 3 7 2 16 -1 19 -3 4 -6 -2 -5 -13z"/>
<path d="M350 1650 c0 -5 5 -10 10 -10 6 0 10 5 10 10 0 6 -4 10 -10 10 -5 0
-10 -4 -10 -10z"/>
<path d="M476 1632 c-2 -4 -1 -14 5 -22 7 -13 9 -12 9 2 0 9 6 19 13 21 7 3 6
6 -5 6 -9 1 -19 -3 -22 -7z"/>
<path d="M440 1615 c-7 -9 -8 -15 -2 -15 5 0 12 7 16 15 3 8 4 15 2 15 -2 0
-9 -7 -16 -15z"/>
<path d="M521 1594 c0 -11 3 -14 6 -6 3 7 2 16 -1 19 -3 4 -6 -2 -5 -13z"/>
<path d="M550 1580 c0 -5 5 -10 11 -10 5 0 7 5 4 10 -3 6 -8 10 -11 10 -2 0
-4 -4 -4 -10z"/>
<path d="M598 1568 c-19 -19 -13 -24 11 -9 7 5 12 13 10 18 -2 5 -12 1 -21 -9z"/>
<path d="M510 1541 c0 -5 5 -13 10 -16 6 -3 10 -2 10 4 0 5 -4 13 -10 16 -5 3
-10 2 -10 -4z"/>
<path d="M2187 353 c-4 -3 -7 -11 -7 -17 0 -6 5 -5 12 2 6 6 9 14 7 17 -3 3
-9 2 -12 -2z"/>
<path d="M865 290 c3 -5 8 -10 11 -10 2 0 4 5 4 10 0 6 -5 10 -11 10 -5 0 -7
-4 -4 -10z"/>
<path d="M21 201 c-8 -6 -9 -11 -3 -15 6 -3 14 -1 17 5 9 14 2 20 -14 10z"/>
<path d="M80 194 c0 -11 5 -14 16 -10 9 3 20 6 25 6 6 0 7 5 4 10 -10 16 -45
12 -45 -6z"/>
<path d="M155 194 c-9 -9 -13 -19 -10 -22 3 -4 10 0 15 7 7 12 10 12 23 -1 20
-20 88 -12 80 9 -4 10 -15 13 -35 11 -16 -3 -31 -1 -34 4 -8 12 -21 10 -39 -8z"/>
<path d="M294 178 c-5 -8 -2 -9 9 -5 12 4 17 1 17 -11 0 -14 2 -15 10 -2 6 9
5 17 -3 22 -17 11 -25 10 -33 -4z"/>
<path d="M70 144 c0 -8 5 -12 10 -9 6 3 10 10 10 16 0 5 -4 9 -10 9 -5 0 -10
-7 -10 -16z"/>
<path d="M180 140 c0 -5 7 -7 15 -4 8 4 15 8 15 10 0 2 -7 4 -15 4 -8 0 -15
-4 -15 -10z"/>
<path d="M2238 123 c7 -3 16 -2 19 1 4 3 -2 6 -13 5 -11 0 -14 -3 -6 -6z"/>
<path d="M45 100 c3 -5 10 -10 16 -10 5 0 9 5 9 10 0 6 -7 10 -16 10 -8 0 -12
-4 -9 -10z"/>
<path d="M145 80 c-3 -5 -1 -10 4 -10 6 0 11 5 11 10 0 6 -2 10 -4 10 -3 0 -8
-4 -11 -10z"/>
<path d="M2215 10 c3 -5 14 -10 23 -10 15 0 15 2 2 10 -20 13 -33 13 -25 0z"/>
</g>
</svg>
